<?xml version="1.0" encoding="UTF-8"?>
<svg id="Layer_2" data-name="Layer 2" xmlns="http://www.w3.org/2000/svg" xmlns:xlink="http://www.w3.org/1999/xlink" viewBox="0 0 960.11 95.49">
  <defs>
    <style>.cls-1{fill:none}.cls-2{fill:url(#radial-gradient-4)}.cls-3{fill:url(#radial-gradient-3)}.cls-4{fill:url(#radial-gradient-2)}.cls-5{fill:url(#radial-gradient)}.cls-6{fill:#fff}.cls-7{clip-path:url(#clippath)}</style>
    <clipPath id="clippath"><path class="cls-1" d="M59.65,49.54c0,2.3-.73,4.42-2.18,6.34-1.45,1.92-3.58,2.88-6.4,2.88-3.24,0-5.53-.94-6.85-2.82-1.32-1.88-2.33-4.01-3.01-6.4-.6-2.13-1.37-4.2-2.3-6.21-.94-2-2.6-3.01-4.99-3.01-3.33,0-5.95,1.56-7.87,4.67-1.92,3.12-2.88,9.32-2.88,18.62,0,6.49.94,11.73,2.82,15.74,1.88,4.01,5.84,6.02,11.9,6.02,3.33,0,6.66-.66,9.98-1.98,3.33-1.32,5.85-2.84,7.55-4.54.08-.17.36-.11.83.19.47.3.83.62,1.09.96.43.43.79.88,1.09,1.34.3.47.45.88.45,1.22,0,.17-.02.34-.06.51-.04.17-.11.34-.19.51-2.3,3.24-5.76,6.02-10.37,8.32-4.61,2.3-9.81,3.46-15.62,3.46-8.62,0-16.21-2.77-22.78-8.32-6.57-5.55-9.86-13.01-9.86-22.4s3.26-16.79,9.79-22.21c6.53-5.42,14.57-8.13,24.13-8.13,6.31,0,12.18,1.47,17.6,4.42,5.42,2.94,8.13,6.55,8.13,10.82Z"/></clipPath>
    <radialGradient id="radial-gradient" cx="41.77" cy="86.94" r="199.26" gradientUnits="userSpaceOnUse"><stop offset="0" stop-color="#e7bfff"/><stop offset="1" stop-color="#fff" stop-opacity="0"/></radialGradient>
    <radialGradient id="radial-gradient-2" cx="848.75" cy="1.28" r="199.26" gradientUnits="userSpaceOnUse"><stop offset="0" stop-color="#bfdeff"/><stop offset="1" stop-color="#fff" stop-opacity="0"/></radialGradient>
    <radialGradient id="radial-gradient-3" cx="504.05" cy="183.82" r="199.26" gradientUnits="userSpaceOnUse"><stop offset="0" stop-color="#7fffae"/><stop offset="1" stop-color="#fff" stop-opacity="0"/></radialGradient>
    <radialGradient id="radial-gradient-4" cx="272.38" cy="-15.44" r="199.26" gradientUnits="userSpaceOnUse"><stop offset="0" stop-color="#faffdf"/><stop offset="1" stop-color="#fff" stop-opacity="0"/></radialGradient>
  </defs>
  <g class="cls-7">
    <rect class="cls-6" x="-84.49" y="-26.72" width="1125" height="188.25"/>
    <circle class="cls-5" cx="41.77" cy="86.94" r="199.26"/>
    <circle class="cls-4" cx="848.75" cy="1.28" r="199.26"/>
    <circle class="cls-3" cx="504.05" cy="183.82" r="199.26"/>
    <circle class="cls-2" cx="272.38" cy="-15.44" r="199.26"/>
  </g>
</svg>
