<?xml version="1.0" encoding="UTF-8"?>
<svg id="Layer_2" data-name="Layer 2" xmlns="http://www.w3.org/2000/svg" viewBox="0 0 92.36 113.28">
  <defs>
    <style>
      .cls-1 {
        fill: none;
        stroke: #e9feff;
        stroke-miterlimit: 10;
        stroke-width: 6px;
      }

      .cls-2 {
        fill: #e9feff;
      }
    </style>
  </defs>
  <g id="Layer_1-2" data-name="Layer 1">
    <g>
      <path class="cls-2" d="M60.38,37.17c0,4.18-.86,7.06-2.59,8.64-1.73,1.58-3.55,2.71-5.47,3.38-1.68.53-3.35,1.27-5,2.23-1.66.96-2.36,2.4-2.12,4.32l.07.29c0,.14-.19.32-.58.54-.38.22-.74.35-1.08.4-.34,0-.7-.04-1.08-.11-.38-.07-.62-.18-.72-.32l-1.37-9.5c-.29-2.11.31-3.64,1.8-4.57,1.49-.94,3.17-1.69,5.04-2.27,1.82-.58,3.56-1.19,5.22-1.84,1.66-.65,2.48-1.74,2.48-3.28,0-.82-.35-1.61-1.04-2.38-.7-.77-2.05-1.15-4.07-1.15-1.06,0-2.33.17-3.82.5-1.49.34-2.69.5-3.6.5-1.87,0-3.38-.58-4.54-1.73-1.15-1.15-1.73-2.52-1.73-4.1,0-1.87.65-3.4,1.94-4.57s3.14-1.76,5.54-1.76c3.7,0,7.4,1.73,11.12,5.18,3.72,3.46,5.58,7.32,5.58,11.59ZM49.58,66.84c0,1.58-.59,2.96-1.76,4.14s-2.56,1.76-4.14,1.76-2.96-.59-4.14-1.76c-1.18-1.18-1.76-2.56-1.76-4.14,0-1.68.56-3.08,1.69-4.21,1.13-1.13,2.53-1.69,4.21-1.69,1.58,0,2.96.59,4.14,1.76s1.76,2.56,1.76,4.14Z"/>
      <circle class="cls-1" cx="46.18" cy="46.18" r="43.18"/>
    </g>
  </g>
</svg>