<?xml version="1.0" encoding="UTF-8"?>
<svg id="Layer_2" xmlns="http://www.w3.org/2000/svg" version="1.1" viewBox="0 0 92.4 93.3">
  <!-- Generator: Adobe Illustrator 30.2.1, SVG Export Plug-In . SVG Version: 2.1.1 Build 1)  -->
  <defs>
    <style>
      .st0 {
        fill: none;
        stroke: #e9feff;
        stroke-miterlimit: 10;
        stroke-width: 6px;
      }

      .st1 {
        fill: #e9feff;
      }
    </style>
  </defs>
  <g id="Layer_1-2">
    <g>
      <path class="st1" d="M60.4,37.2c0,4.2-.9,7.1-2.6,8.6-1.7,1.6-3.5,2.7-5.5,3.4-1.7.5-3.3,1.3-5,2.2-1.7,1-2.4,2.4-2.1,4.3v.3c0,.1-.1.3-.5.5-.4.2-.7.3-1.1.4-.3,0-.7,0-1.1-.1s-.6-.2-.7-.3l-1.4-9.5c-.3-2.1.3-3.6,1.8-4.6,1.5-.9,3.2-1.7,5-2.3,1.8-.6,3.6-1.2,5.2-1.8s2.5-1.7,2.5-3.3-.3-1.6-1-2.4c-.7-.8-2-1.1-4.1-1.1s-2.3.2-3.8.5c-1.5.3-2.7.5-3.6.5-1.9,0-3.4-.6-4.5-1.7-1.2-1.1-1.7-2.5-1.7-4.1s.7-3.4,1.9-4.6,3.1-1.8,5.5-1.8c3.7,0,7.4,1.7,11.1,5.2,3.7,3.5,5.6,7.3,5.6,11.6h0ZM49.6,66.8c0,1.6-.6,3-1.8,4.1s-2.6,1.8-4.1,1.8-3-.6-4.1-1.8c-1.2-1.2-1.8-2.6-1.8-4.1s.6-3.1,1.7-4.2,2.5-1.7,4.2-1.7,3,.6,4.1,1.8,1.8,2.6,1.8,4.1Z"/>
      <circle class="st0" cx="46.2" cy="46.2" r="43.2"/>
    </g>
  </g>
</svg>