<?xml version="1.0" encoding="UTF-8"?>
<svg id="Layer_1" xmlns="http://www.w3.org/2000/svg" version="1.1" viewBox="0 0 258.5 258.8">
  <!-- Generator: Adobe Illustrator 30.2.1, SVG Export Plug-In . SVG Version: 2.1.1 Build 1)  -->
  <defs>
    <style>
      .st0 {
        fill: none;
      }

      .st1 {
        fill: #fff;
      }
    </style>
  </defs>
  <g>
    <path class="st1" d="M168.5,149.9c.2-2.1.2-4.2,0-6.3-.2-2.1-4.1-2.4-4.3,0-.2,2.2-.2,4.4,0,6.7.2,1.7,4.2,1.7,4.3-.3h0Z"/>
    <path class="st1" d="M154.7,154.9c-.9.9-1.5,2.2-.8,3.3,1.5,1.9,3,2.1,4.7.3,1.1-1.3-1.6-5.2-3.8-3.7Z"/>
    <path class="st1" d="M154.2,163.9c-1.9,2.2,1.8,4.6,3.2,3.5l3.8-3.8c-.2,1.1-.1,1.6.3,2.3,1.3,1.8,3.2,2.2,4.7,1,1.3-1.5-.4-4.8-3.8-4.5l3.8-3.8c2.2-2.8-1.4-5.1-3.2-3.7-2.9,3.1-5.8,6.1-8.9,9h0Z"/>
    <path class="st1" d="M129.5,168.5c-1.4-1.8-3.1-3.2-5.2-4.2-.7-.4-1.6-.4-2-.2-1.7,1.3-1.6,3.6-.3,4.5,1.6.9,2.8,2.2,4.7,3,2.3.8,3.5-2.1,2.8-3.2h0Z"/>
    <path class="st1" d="M129.1,181.6c.1,1,2.1,1.2,3.5.8.5-.2.7-.7.8-1.2.2-2.5,0-4.9-.7-7.3-.3-1.2-2-1.6-3.5-1.3-1,.4-1.1,1.6-1,2.7.4,2.1.7,4.2.8,6.3h0Z"/>
    <path class="st1" d="M198.4,192c-3.2-.6-6.2,0-9,1.7-1.9,1.2-3.7,2.4-5.7,3.5-3.3-6-7.7-7-13.4-3-.4-.2-.9-.4-1.3-.7-.6-4.9-.4-10.5-.2-15.7.1-1.3.5-2,1.3-3,5.3-6,8-13,8.4-21,.2-11.1.2-22.3,0-33.4-.1-2.1-1.9-3.7-5.5-3.7,0-1.7,0-2.3,0-4.7.6,0,1.3,0,1.8-.4,1.4-.6,1.6-2.8.2-4.3-1.4-1.1-2.8-.8-4.2.3-1.3-1.1-3.3-1.2-4.2-.3-1.4,1.9-.8,4.5,1.7,4.7.2,1.8.2,3,0,4.6h-3.7c0-13,0-26-.2-39.1-.7-6.7-7.1-8.8-13.9-6.3-.6-4.4-3.1-7.3-7.3-8.5-6-.7-9.8,1.8-11.4,7.5-.4,2.5-.2,2.9-.3,4.7-5.9-2.3-13.3.8-13.5,5,0,.6,0,1.2-.2,1.7l-14.2-24.6c-1.9-3.4-6.3-4.5-9.8-2.5l-31.7,18.3c-3.4,2-4.7,6.3-2.7,9.7l28.2,48.9c1.9,3.4,6.3,4.5,9.8,2.5.5-.3,1.1-.5,1.8-.6,1.5,5.7,2.9,11.3,4.4,17,1.9,7,4.9,13.4,9,19.4,2.1,3,4.8,5.3,8.2,6.8.6.5,1.4.3,1.5,1.8.2,4.6.2,9.1.2,13.7-1.3-.1-2.6.2-3.7,1-.9-1.4-2-2.7-3.3-3.8-5.5-3.2-12.2-1.2-15,6.2-3.4-2.7-7.3-3.9-11.7-3.5-2.6.5-2.9,4.1,0,4.3,2.2.2,4.3.6,6.3,1.3,3,.8,4.1,2.8,6.3,4,1.5,2.4,2.3,2.9,4,4,7.6,2.6,12.3,0,14.4-7.7,1-.5,2-1,3-1.3,2.5,0,4.9,0,7.3,0,2.2-.2,2.3-3.2.3-4-.9-.3-1.9-.6-2.8-.8-.1-4.3-.2-8.7-.3-13,0-2.3-.9-4.6-3.2-5.8-3-1.3-5.5-3.3-7.5-5.8-6-7-12-27.6-14.2-40.9-.3-1.9,1-3.9,3.3-4.3,2.8-.5,4.7.6,5.8,3.2,2,5.6,4,11.1,6,16.7,1.4,1.7,2.8,1.7,4.3,0,0-9.9,0-16.1.2-21.9l7-4.1c1-.9,1.8-1.6,2.4-2.4,0,4,0,8,0,12.1.1.8.5,1.4,1.2,1.8,1.5.5,3.4,0,3.5-1.2.1-18.6.2-36.1.3-54.7-.1-6.2,8.1-6,8.4-1.7.4,19.3.7,38.7.7,58.1.1.8.5,1.5,1.2,1.8,1.9.6,3.4-.4,3.5-1.8l.3-49.7c.5-4,8.5-4.1,8.7,0l.3,51.8c.1.8.4,1.5,1.2,1.8,1.5.5,3.4-.2,3.5-1.2.2-2.9.2-5.8.2-8.7h9c.1,12.1,0,24.3-.5,36.4-.9,5.4-4,10.1-7,14-1.2,1.9-2.2,4.1-2.3,6.3-.2,4.4-.2,8.9-.2,13.4-3.2-.3-6.4.1-9.4,1.3-.8-.8-1-1.4-2.3-2.5-5.1-3.3-11.8-1.7-14.2,5.8-.7-.5-1.4-1-2.2-1.5-2.6-.9-4.1,2.5-2.3,4.3,1.9,1.4,4,2.4,6.3,3,1.2,1.4,2.6,2.4,4.3,3,4.7,1.1,9.4-1.4,11-7,4.5-2.6,9-2.4,13.4.5,0,2.8,1.2,5.1,3.3,6.8,4.2,2.7,8.9,1.3,11.7-3.3.9-.6,2-.8,2.9-1.4,2.4-1.4,5.1-3.7,7.3-4.3,1.6-.4,3.1-.2,4.8-.3,2.6-.3,2.7-3.7,0-4.3h0ZM114.8,198.8c-1.6,3-4,3.8-7.2,2.5-3.9-2.1-2.6-8,1-8.9,4.5-.2,7.4,1.9,6.2,6.3h0ZM96.2,129.7c-.2,0-1.3.7-2.7.4-.9-.2-1.7-.8-2.2-1.6l-27.3-47.3c-1-1.7-.4-3.9,1.3-4.9l30-17.3c1.7-1,3.9-.4,4.9,1.3,6,10.4,25.4,44,27.3,47.3,1,1.7.4,3.9-1.4,4.9-1.8,1-9,5.2-12.4,7.1-1.1-1-2.6-1.8-4.2-2.3-8.1-.7-13.1,4.7-11.5,11.2,0,.2.1.5.2.7-.6.2-1.3.4-2.1.6h0ZM117.5,126.7c-.3-.4-.4-.9-.5-1.3-.2-.8-.3-1.5-.6-2.2l1.3-.8c0,.9-.2,2.2-.2,4.2h0ZM122.3,89.1c-.1-4.7,0-6.6.5-8.2,1.2-4,8.8-2.9,8.8.8,0,7.9.1,15.8.2,23.8l-9.4-16.3h0ZM149.9,198.8c-1.1,1.9-2.7,2.5-4.8,1.8-2-1-2.3-1.7-2.3-4.5.2-.6.9-2.3,2.6-2.6,4-.5,5.7,1.9,4.5,5.3ZM178.9,200.2c-.2,1.6-2,2.6-3.8,1.8-2.5-1-1.9-4.9,0-5.5,2.6-.6,4.1.9,3.8,3.7Z"/>
  </g>
  <circle class="st0" cx="129.6" cy="130.3" r="113.4"/>
  <path class="st1" d="M35.9,44.2c-.3.3-.6.4-1,.5s-.7,0-1-.4c-.3-.3-.4-.6-.4-1,0-.4.1-.7.4-1s.6-.4,1-.5.7,0,1,.3c.3.3.4.6.4,1,0,.4-.1.7-.4,1ZM44.8,58.1c.3.2.4.6.4,1,.5-.1,1-.3,1.3-.7.6-.7.9-1.4.8-2.1s-.6-1.4-1.5-2.2l-5.8-5.3c-1.1-1-1.8-1.6-2.1-1.8s-.6-.1-.8.2c-.1.1-.3.3-.4.6,0,.2-.2.3-.2.4-.4.4-.7.4-1.1,0-.4-.4-.4-.8,0-1.3.2-.2.3-.3.5-.5.4-.4.7-.6.8-.8,0,0,.2-.3.4-.5.2-.2.3-.4.4-.5.3-.4.7-.4,1.1,0,0,0,.2.2.3.4.2.2.4.4.5.5.2.2.6.6,1.3,1.3.8.7,1.3,1.3,1.8,1.7l4.2,3.8c.7.7,1.3,1.2,1.6,1.6.5.6.8,1.3.9,2,.2,1.2-.2,2.4-1.2,3.5-.7.7-1.4,1.2-2.2,1.3s-1.5,0-2.1-.5c-.3-.3-.5-.6-.5-1,0-.4,0-.7.3-1,.2-.2.5-.4.8-.4.3,0,.6,0,.8.2h0Z"/>
  <path class="st1" d="M56,43.2l-.5-.6c.2,1.5-.4,2.8-1.7,4-1.5,1.3-2.9,1.8-4.3,1.4-.6-.2-1.2-.5-1.7-1s-.8-.8-1.5-1.6l-1.4-1.5c-1.5-1.7-2.5-2.4-2.8-2.1,0,0-.2.2-.3.3-.2.2-.3.3-.3.4-.4.4-.8.4-1.2,0-.3-.4-.3-.8.3-1.3.1-.1.3-.3.6-.5s.5-.3.6-.5c.1,0,.3-.3.5-.6.2-.2.3-.3.3-.3.4-.3.8-.3,1.2.2l.3.4,1.1,1.2,1.2,1.4,1.1,1.2c1,1.1,1.8,1.8,2.4,2.1,1,.5,2,.3,3.1-.7.5-.5.9-1,1.1-1.6s.2-1.2,0-1.7c-.2-.7-1-1.7-2.2-3l-.9-1c-.7-.8-1-1.2-1.1-1.2-.6-.5-1-.7-1.3-.5-.1.1-.2.2-.3.3l-.2.2c-.4.4-.8.4-1.2,0-.4-.4-.3-.8.2-1.3.1,0,.3-.2.5-.4.2-.2.4-.3.5-.4,0,0,.2-.2.4-.4s.3-.3.4-.4c.4-.3.7-.3,1.1,0,.2.2.3.3.3.4.4.5,1,1.3,1.8,2.2l2.6,2.9c.7.8,1.1,1.2,1.2,1.2.7.6,1.1.8,1.4.5,0,0,.2-.2.3-.4.1-.2.2-.3.3-.4.4-.4.8-.4,1.2,0,.4.4.3.9-.2,1.3-.1,0-.3.2-.5.4-.3.2-.5.4-.6.5s-.2.2-.4.4c-.1.2-.2.3-.3.4-.3.3-.7.3-1,0h0Z"/>
  <path class="st1" d="M65.2,28c.4.5.6.9.6,1,0,.2-.2.4-.5.6l-6.5,4.6c-.2.1-.3.2-.3.3s0,.2,0,.3c.7,1,1.6,1.7,2.7,1.9,1.1.2,2.1,0,3-.6.6-.4,1-1,1.3-1.7s.3-1.3,0-1.9l-.2-.7c-.1-.4,0-.7.3-1,.5-.3.9-.3,1.3.2.6.9.7,2,.3,3.3s-1.2,2.4-2.4,3.2c-1.4,1-2.9,1.3-4.4,1s-2.9-1.4-4-3c-1.2-1.7-1.7-3.3-1.5-5,.2-1.7,1-3,2.4-4,1.3-.9,2.7-1.2,4.1-.9s2.6,1.1,3.6,2.4h0ZM57.3,32.7c.1.2.3.2.7,0l4.9-3.4c.3-.2.4-.4.2-.6-.5-.7-1.2-1.2-2.2-1.3-.9-.1-1.8,0-2.5.5-.8.5-1.3,1.3-1.5,2.3-.2,1-.1,1.8.4,2.5h0Z"/>
  <path class="st1" d="M69.6,19.1c.4-.2.8-.4,1.4-.5-.7-1.5-.3-2.7,1.3-3.5.7-.4,1.3-.5,2-.4s1.1.4,1.4,1c.2.4.2.7.2,1.1s-.3.6-.6.8c-.2.1-.5.2-.8,0s-.5-.2-.6-.4c-.1-.2,0-.6,0-1-.4-.2-.8-.1-1.1,0-.8.4-.9,1.1-.4,2.1,1.5.1,2.6.9,3.3,2.1.6,1,.6,2.1.2,3.2s-1.2,2-2.3,2.6c-.8.4-1.8.7-2.8.8-.3,0-.5,0-.7.2-.2.1-.3.3-.4.6,0,.3,0,.5.1.8.4.8,1.4.7,2.9-.1h.1c.1-.1.2-.2.4-.3s.2-.1.3-.1c1.4-.8,2.6-1.2,3.6-1.5.9-.2,1.8-.1,2.6.1.8.3,1.3.7,1.7,1.4.6,1.1.5,2.2-.1,3.3s-1.8,2.2-3.5,3.1c-1.7.9-3.2,1.3-4.5,1.3s-2.2-.6-2.8-1.7c-.6-1.2-.4-2.4.6-3.6-1.5.2-2.4-.2-3-1.1-.6-1-.3-2.1.7-3.1-.7-.3-1.2-.8-1.6-1.5-.5-1-.6-2-.2-3.1s1.2-1.9,2.4-2.6ZM70.5,20.5c-.7.4-1.1.8-1.3,1.5-.2.6-.2,1.2,0,1.8h0c.3.8.8,1.2,1.5,1.3.7.2,1.3,0,2-.3.7-.4,1.2-.9,1.5-1.6s.2-1.3-.1-1.9c-.3-.6-.9-1-1.6-1.2s-1.4,0-2.1.3h0ZM75.1,29.1c-1.2.6-2,1.3-2.5,2-.5.7-.6,1.4-.2,2s.9.9,1.8.9c.8,0,1.8-.3,2.9-.9,1.2-.6,2-1.3,2.5-2s.6-1.4.3-2c-.3-.6-.9-.9-1.8-.9s-1.8.3-3,1h0Z"/>
  <path class="st1" d="M87.8,25.4c-1.6.6-3.2.6-4.6-.1s-2.5-2-3.3-4c-.8-1.9-.9-3.6-.3-5.1.5-1.5,1.6-2.6,3.3-3.3,1.7-.7,3.2-.6,4.7,0s2.5,2,3.3,3.9c.8,1.9.8,3.6.3,5.2-.6,1.5-1.7,2.7-3.4,3.3ZM83.5,14.4c-1.1.4-1.8,1.1-2.1,2.2s-.2,2.2.3,3.6v.3c.7,1.5,1.5,2.5,2.4,3.1.9.6,2,.7,3.1.2,1.1-.5,1.9-1.2,2.2-2.3s.2-2.4-.4-3.9c-1.2-3.1-3-4.2-5.4-3.2h0Z"/>
  <path class="st1" d="M96.2,8.4c1.1-.3,2.1-.3,2.9.1h0c-.2-.7,0-1.1.5-1.2.5-.1.9,0,1,.6,0,.1,0,.3.2.7,0,.3,0,.7.2,1,0,.2.2.5.3.8s.2.6.3.8c.2.6,0,1-.5,1.1-.5.1-.8,0-1-.6l-.2-.8c-.2-.5-.5-.8-1.2-1-.6-.2-1.3-.2-2,0-.7.2-1.3.6-1.7,1.1-.4.5-.5,1.1-.4,1.6.3,1,1.2,1.5,2.6,1.3l1.5-.2c2.8-.4,4.5.4,5.1,2.3.3,1.2.1,2.2-.6,3.2s-1.8,1.6-3.2,2c-1.3.4-2.6.3-3.8-.2,0,.2,0,.3.1.5.2.6,0,1-.6,1.1-.6.2-1,0-1.2-.8,0,.1,0-.3-.2-1.3,0-.2,0-.5-.1-.7-.1-.4-.2-.7-.4-1.1-.2-.3-.3-.6-.3-.8-.2-.6,0-.9.5-1.1.3,0,.6,0,.7,0,.1.1.3.5.5,1.2s.7,1.1,1.6,1.4,1.8.2,2.9,0c.8-.2,1.4-.6,1.8-1.1.4-.5.5-1.1.4-1.7-.3-1.1-1.3-1.5-3.1-1.2-1.7.3-3.1.3-4.1,0s-1.7-1-2-2.1c-.3-1.1-.1-2.2.5-3.1.7-.9,1.7-1.6,3-2h0Z"/>
  <path class="st1" d="M116.3,4.7c1.7-.2,2.9.4,3.9,1.6l-.2-2.5c0-.7-.1-1.1-.2-1.2-.1-.5-.4-.7-.8-.7-.1,0-.3,0-.6.1-.2,0-.4.1-.6.1-.6,0-.9-.2-1-.7,0-.6.3-.9,1.2-.9.1,0,.4,0,.7,0h.8c.2,0,.4,0,.6-.1s.5-.1.6-.1c.5,0,.7.3.8.9v.3c0,0,0,.5.1,1.3,0,0,0,.7.1,1.9,0,.8,0,1.5.1,1.9l.2,2.4.4,4.2c.1,1.1.2,1.8.3,2s.3.4.6.3c.2,0,.4,0,.5-.1.3,0,.4,0,.6-.1.6,0,1,.2,1,.7,0,.6-.3.9-1,1-.2,0-.4,0-.8,0-.4,0-.6,0-.8,0,0,0-.2,0-.6.1-.2,0-.4.1-.5.1-.4,0-.7-.2-.8-.8h0c0-.1,0-.5,0-.5-.8,1.3-2,2-3.7,2.1-1.7.2-3.1-.3-4.3-1.5s-1.8-2.7-2-4.7c-.2-2,.2-3.7,1.1-5,.9-1.3,2.2-2,3.9-2.2h0ZM120.8,13.1c0-.6,0-1.3-.1-2.1-.1-1.1-.2-1.9-.3-2.3-.2-.8-.7-1.4-1.3-1.8-.7-.5-1.5-.7-2.4-.6-1.2.1-2.1.6-2.6,1.6-.6.9-.8,2.2-.6,3.7.2,1.6.6,2.8,1.4,3.6s1.8,1.2,2.9,1.1c.9,0,1.6-.4,2.2-1,.6-.6.8-1.3.8-2.2Z"/>
  <path class="st1" d="M138,9.7c0,.6,0,1-.1,1.2,0,.1-.3.2-.7.2l-8-.2c-.2,0-.4,0-.4,0,0,0-.1.1-.1.3,0,1.2.3,2.3,1.1,3.2s1.7,1.3,2.8,1.3c.7,0,1.4-.2,2-.6s1-.9,1.2-1.5l.2-.7c.1-.4.4-.6.8-.6.6,0,.9.3.9,1,0,1.1-.6,2-1.7,2.9s-2.4,1.2-3.8,1.2c-1.8,0-3.1-.7-4.1-1.9s-1.5-2.8-1.4-4.8c0-2,.6-3.7,1.8-4.9s2.6-1.8,4.4-1.8c1.6,0,2.9.6,3.9,1.7,1,1.1,1.5,2.4,1.4,4.1h0ZM128.9,8.9c0,.2.2.4.5.4h6c.4.1.5,0,.5-.2,0-.9-.3-1.7-.9-2.3s-1.4-1-2.3-1c-.9,0-1.8.3-2.6,1s-1.2,1.4-1.2,2.2h0Z"/>
  <path class="st1" d="M144.4,7.4l-.9,7.7c0,.9.1,1.3.5,1.3.1,0,.3,0,.6,0,.2,0,.3,0,.4,0,.6,0,.8.4.7.9,0,.5-.4.8-1.1.7-.3,0-.7-.1-1.3-.2-.6-.1-1-.2-1.3-.2-.3,0-.7,0-1.2,0-.5,0-.9,0-1.2,0h-.1c-.7,0-1-.4-.9-1,0-.5.4-.7.9-.7,0,0,0,0,.2,0,.1,0,.2,0,.2,0,.4.1.6.2.7.2.3,0,.5,0,.6-.3.1-.2.2-.9.4-2l.2-1.8.4-3.9.5-4.4c0-.5,0-.8,0-1,0-.4-.3-.6-.6-.7,0,0-.3,0-.7,0-.2,0-.3,0-.4,0-.6,0-.8-.4-.8-.9,0-.6.4-.8,1.1-.7.2,0,.3,0,.5,0h.6c.3.2.5.2.7.3.2,0,.4,0,.8,0s.6,0,.8,0c.4,0,.6.3.5.8,0,.2,0,.3,0,.4-.3,1.3-.5,3.1-.8,5.4h0Z"/>
  <path class="st1" d="M159.4,8.7l-.2.8c1.2-1,2.6-1.3,4.2-.9,1.6.4,2.8,1.3,3.4,2.7.7,1.4.7,3,.2,4.9-.6,2-1.5,3.5-2.8,4.5s-2.9,1.2-4.6.7c-1.4-.4-2.4-1.2-3-2.4l-.5,2c-.2.6-.2,1-.3,1.2,0,.5.1.8.5.9.1,0,.3,0,.5,0s.4,0,.5,0c.5.1.7.5.6,1s-.6.7-1.2.5c-.2,0-.6-.2-1.1-.4-.3-.1-.9-.3-1.6-.5-.4-.1-.7-.2-1-.2-.7,0-1.1-.2-1.3-.2-.3,0-.5-.2-.6-.4-.1-.2-.2-.4-.1-.7.1-.5.5-.7,1-.5.1,0,.2,0,.4.2.3.1.4.2.6.2.3,0,.5,0,.7-.3s.4-1.2.8-2.6l2.5-9.4c.2-.8,0-1.2-.3-1.3-.1,0-.3,0-.5,0s-.4,0-.6,0c-.6-.2-.8-.5-.7-1,.1-.5.6-.7,1.3-.5.2,0,.4.1.6.2.4.1.7.2.9.3.1,0,.4,0,.6.1s.5,0,.6.1c.4.1.5.4.4.8h0ZM158.9,11.7c-.3.6-.6,1.3-.9,2.2,0,0,0,.2-.1.4,0,.1,0,.3,0,.3-.3,1.1-.4,1.9-.4,2.4,0,.5.3,1.1.7,1.6s1,.9,1.8,1.1c1.2.3,2.2.1,3-.5.9-.7,1.5-1.8,1.9-3.4.9-3.2.1-5.1-2.1-5.8-.8-.2-1.5-.2-2.3.1-.7.3-1.3.8-1.6,1.5h0Z"/>
  <path class="st1" d="M176.5,27.3c-1.3-.5-1.8-1.4-1.7-2.6-1.3.8-2.7.9-4.4.2-1.2-.5-2.1-1.2-2.6-2.1s-.5-1.9-.1-2.9c.5-1.3,1.5-2,2.8-2.2.5,0,.9,0,1.3,0,.3,0,1,.2,1.9.5,1.4.4,2.3.5,2.8.5.5,0,.9-.5,1.1-1.1.3-.6.2-1.2,0-1.8-.3-.5-.8-1-1.6-1.3-.7-.3-1.4-.4-2.2-.2-.3,0-.5.2-.6.4,0,0,0,.2.1.3.1.2.2.5,0,.9-.1.3-.3.5-.6.6-.3.1-.6.1-1,0-.4-.2-.7-.4-.8-.8s-.2-.8,0-1.2c.4-.9,1.1-1.4,2.2-1.7,1.1-.3,2.3-.2,3.5.3,2.8,1.1,3.7,3.1,2.6,5.8l-1.9,4.7c-.3.7-.5,1.2-.5,1.3-.1.6,0,1,.5,1.1.5.2,1-.2,1.4-1.1l.5-1.1c.2-.5.5-.6,1-.5.5.2.6.7.3,1.4h0c0,.1-.5,1.4-.5,1.4-.6,1.5-1.7,1.9-3.3,1.3h0ZM175.8,21.7l.7-1.6c-.5.2-.9.2-1.3.2s-1.1-.2-2.2-.5c-1.8-.5-3-.2-3.4.9-.2.6-.2,1.1,0,1.6.3.5.8.9,1.5,1.2,1,.4,2,.5,2.8.1s1.4-1,1.9-2h0Z"/>
  <path class="st1" d="M188.4,19.8l-.4.6c1.5-.6,3-.5,4.4.3.8.4,1.4,1.1,1.9,1.9.5.8.7,1.6.6,2.3,0,.6-.3,1.3-.8,2.1l-2.4,4.2c-.4.6-.6,1-.6,1.1-.2.5-.1.9.2,1.1.1,0,.3.2.5.2.2,0,.4.2.5.2.2.1.3.3.4.5,0,.2,0,.4,0,.6-.1.2-.3.3-.6.4-.3,0-.5,0-.8-.1-.2-.1-.5-.3-1-.7-.4-.3-.9-.6-1.3-.8-.4-.2-.7-.4-1-.5-.8-.3-1.2-.5-1.2-.5-.6-.3-.7-.8-.4-1.3.2-.5.6-.5,1.1-.2.1,0,.2.2.4.3.2.2.4.3.5.4.4.2.8,0,1.3-.9l.6-1.1.8-1.3.9-1.7c.4-.8.7-1.3.8-1.7.2-.6.1-1.2-.1-1.8-.3-.6-.7-1.1-1.4-1.4-1.2-.7-2.2-.7-3.2-.2-.7.4-1.4,1.2-2.2,2.6l-1.6,2.9c-.4.6-.6,1.1-.6,1.4s0,.5.3.6c.1,0,.3.1.5.2s.4.1.6.2c.4.3.5.6.3,1.1-.3.5-.7.5-1.3.2-.1,0-.5-.3-1.1-.8-.3-.2-.6-.5-1-.7-.3-.2-.7-.4-1.3-.6-.7-.3-1.1-.5-1.1-.5-.6-.3-.8-.8-.5-1.3.3-.5.6-.6,1.1-.3,0,0,.2.1.4.3s.4.3.6.4c.4.2.9,0,1.4-.9l1.4-2.4,1.5-2.6.4-.8c.2-.5.4-.9.4-1.1s-.1-.4-.4-.6c-.1,0-.3-.1-.5-.2-.2,0-.4-.1-.5-.2-.5-.3-.7-.7-.4-1.1.3-.5.7-.5,1.4-.2,0,0,.2.1.2.1l.8.5c.2.1.4.2.6.3.4.2.6.3.6.3.4.2.5.6.3,1h0Z"/>
  <path class="st1" d="M200.3,37.3l.9-1.3c.4-.5.9-.7,1.3-.3s.5.8,0,1.5c-1.1,1.5-2,2.4-2.8,2.7-1.1.4-2.2.2-3.4-.6-1.1-.8-1.6-1.7-1.6-2.7,0-.7.5-1.7,1.4-2.9l3.5-4.9c.2-.3.2-.5,0-.7l-.7-.5c-.2-.2-.4-.4-.4-.6,0-.2,0-.5.2-.7.1-.2.3-.3.6-.4.2,0,.5,0,.6.1l.8.6c.2.2.4.1.6-.1l1.5-2.1c.4-.5.8-.6,1.4-.2.5.4.6.8.2,1.3l-1.6,2.2c-.1.2-.1.4.1.6l2.2,1.6c.5.4.6.8.3,1.3-.4.5-.8.5-1.4.2l-2.2-1.6c-.2-.1-.4,0-.6.2l-3.6,5c-1,1.4-1.1,2.5-.1,3.2,1,.7,1.9.5,2.8-.6h0Z"/>
  <path class="st1" d="M213.8,43.6c-.4.5-.7.7-.9.8-.2,0-.4,0-.7-.3l-6-5.3c-.2-.1-.3-.2-.4-.2s-.2,0-.3.2c-.8.9-1.2,2-1.2,3.1,0,1.1.4,2.1,1.3,2.8.6.5,1.2.8,1.9.9.7,0,1.4,0,1.9-.4l.6-.4c.4-.2.7-.2,1,0,.5.4.5.8,0,1.3-.7.8-1.8,1.2-3.2,1.1s-2.6-.6-3.7-1.5c-1.3-1.2-2-2.5-2-4.1s.7-3.1,2-4.6c1.4-1.5,2.9-2.4,4.5-2.6s3.2.2,4.5,1.4c1.2,1,1.8,2.3,1.9,3.8,0,1.5-.4,2.8-1.5,4h0ZM207.5,37.1c-.2.2,0,.4.2.6l4.5,4c.3.2.5.3.6,0,.6-.7.9-1.5.8-2.4s-.4-1.7-1.1-2.3c-.7-.6-1.6-.9-2.6-.9s-1.8.3-2.4.9h0Z"/>
  <path class="st1" d="M213.5,54.7c-1.2-1.3-1.7-2.8-1.5-4.3s1.1-3.1,2.6-4.4c1.5-1.4,3.1-2.1,4.7-2.1s3,.6,4.2,2c1.2,1.3,1.7,2.8,1.6,4.4-.2,1.6-1,3-2.5,4.4s-3.1,2.1-4.7,2.1c-1.6,0-3.1-.6-4.3-2h0ZM222.3,47c-.8-.9-1.7-1.3-2.8-1.2s-2.2.6-3.3,1.5l-.2.2c-1.2,1-1.9,2.1-2.1,3.2-.2,1.1,0,2.1.9,3,.8.9,1.8,1.3,2.9,1.2,1.1,0,2.3-.7,3.5-1.7,2.5-2.2,2.9-4.3,1.2-6.2ZM228.1,45.4c-.3.3-.8.3-1.3,0l-3.5-1.6c-.2-.2-.3-.2-.3-.2-.2-.2-.2-.5.1-.8.2-.2.4-.2.8,0l3.6,1c.3,0,.5.2.7.4.4.4.4.8,0,1.2h0Z"/>
  <path class="st1" d="M230.6,56.4l-.6.4c1.6,0,2.9.8,3.9,2.2.5.7.8,1.6.9,2.5s0,1.7-.5,2.3c-.3.5-.9,1-1.6,1.6l-3.9,2.7c-.6.4-.9.7-1,.8-.4.4-.5.7-.3,1,0,.1.2.3.4.4s.3.3.4.4c.1.2.2.4.1.6,0,.2-.1.4-.3.5-.2.1-.4.2-.7.1s-.5-.2-.6-.4c-.1-.2-.3-.5-.6-1-.2-.5-.5-.9-.8-1.3-.2-.4-.5-.6-.7-.9-.6-.6-.9-1-.9-1-.4-.6-.3-1,.1-1.3.4-.3.8-.2,1.1.3,0,.1.1.2.2.4.1.3.2.5.3.6.2.3.7.3,1.5-.2l1.1-.7,1.3-.9,1.6-1.1c.7-.5,1.2-.9,1.4-1.2.4-.5.7-1,.7-1.6s-.2-1.3-.6-1.9c-.8-1.1-1.7-1.6-2.8-1.5-.8,0-1.8.5-3.1,1.4l-2.7,1.9c-.6.4-1,.8-1.1,1-.2.2-.2.5,0,.7s.2.2.4.4.3.3.4.4c.3.4.2.8-.2,1.1-.4.3-.9.2-1.2-.4,0-.1-.3-.5-.6-1.2s-.4-.7-.6-1.1c-.2-.3-.5-.7-.9-1.1-.5-.6-.8-.9-.8-1-.4-.6-.4-1,.1-1.3.4-.3.8-.2,1.1.2,0,0,.1.2.2.4s.2.4.3.6c.3.4.8.4,1.6-.2l2.3-1.6,2.5-1.7.7-.5c.4-.3.7-.6.8-.8.1-.2,0-.4,0-.7,0,0-.2-.2-.4-.4s-.3-.3-.4-.4c-.4-.5-.3-.9.1-1.2.4-.3.9-.2,1.3.5,0,0,.1.2.1.2l.4.8c.1.2.3.4.4.5.3.3.4.5.4.5.3.4.2.7-.2,1h0Z"/>
  <path class="st1" d="M236.3,75.2c.5-.3.9,0,1.2.5l1.7,3.5c.3.6.2,1-.3,1.3-.5.3-1,0-1.2-.5l-1.7-3.5c-.3-.6-.2-1,.4-1.3Z"/>
  <path class="st1" d="M233.4,89.9c-.3.1-.7,0-1.1,0-.2.5-.2,1,0,1.5.3.9.8,1.4,1.4,1.7s1.6.1,2.7-.3l7.4-2.6c1.4-.5,2.2-.8,2.5-1s.4-.5.3-.8c0-.2-.2-.4-.3-.6-.1-.1-.2-.3-.2-.4-.2-.5,0-.8.5-1,.5-.2.9,0,1.1.7,0,.2.1.4.2.6.1.5.2.9.3,1.1,0,.1.1.3.3.6s.2.4.3.6c.2.5,0,.8-.5.9,0,0-.2,0-.5.1-.3,0-.5.2-.7.2-.3,0-.8.2-1.7.5-1,.3-1.8.6-2.3.8l-5.4,1.9c-.9.3-1.7.5-2.1.6-.8.1-1.5,0-2.2-.2-1.2-.4-2-1.3-2.5-2.7-.3-.9-.4-1.8-.1-2.6.2-.8.7-1.3,1.4-1.6.4-.1.8-.1,1.1,0,.3.1.6.4.7.7.1.3.1.6,0,.9-.1.3-.3.5-.6.6h0ZM249.8,88.7c-.1-.4-.1-.7,0-1.1.2-.3.4-.6.8-.7.4-.1.7,0,1.1,0s.6.4.7.8.1.7,0,1.1c-.2.4-.4.6-.8.7-.4.1-.7,0-1.1,0-.4-.2-.6-.4-.7-.8h0Z"/>
  <path class="st1" d="M241.2,106.8l.8-.2c-1.4-.6-2.3-1.7-2.7-3.4-.5-1.9-.2-3.4.8-4.4.4-.4,1-.8,1.7-1,.3,0,1.1-.3,2.1-.5l2-.5c2.2-.5,3.3-1.1,3.2-1.5,0,0,0-.2-.1-.5,0-.2-.1-.4-.2-.5-.1-.6,0-.9.6-1.1.5-.1.9.2,1,.9,0,.2,0,.4.1.7,0,.3,0,.6.1.7,0,.2.1.4.3.7,0,.2.1.4.1.4.1.5-.1.8-.7,1h-.5c0,.1-1.6.5-1.6.5l-1.8.4-1.6.4c-1.4.3-2.4.7-3,1.1-.9.6-1.2,1.6-.9,3.1.2.7.5,1.3.9,1.7.4.5,1,.7,1.5.8.7.1,1.9,0,3.7-.5l1.3-.3c1-.2,1.5-.4,1.6-.4.8-.3,1.1-.6,1-.9,0-.2,0-.3-.1-.4v-.3c-.2-.6,0-.9.5-1,.5-.1.9.1,1.1.8,0,.2,0,.4.1.7,0,.3,0,.5.1.7,0,.1,0,.3.2.6s.2.4.2.6c.1.5,0,.8-.6.9-.2,0-.4,0-.5,0-.6,0-1.6.2-2.8.5l-3.8.9c-1,.2-1.6.4-1.7.4-.8.3-1.2.6-1.1,1,0,.1,0,.3.2.5,0,.2.1.4.2.5.1.6,0,.9-.6,1-.6.1-.9-.1-1.1-.8,0-.2,0-.4-.1-.7,0-.4,0-.7-.1-.8,0,0,0-.2-.2-.5-.1-.2-.2-.3-.2-.5-.1-.5,0-.7.5-.8h0Z"/>
  <path class="st1" d="M250.2,122.1c-.6,0-1,0-1.2,0-.1,0-.2-.3-.3-.7l-.9-7.9c0-.2,0-.3-.1-.4s-.2,0-.3,0c-1.2.1-2.2.6-3,1.5-.8.8-1.1,1.8-.9,2.9,0,.7.4,1.4.8,1.9.5.6,1,.9,1.7,1h.8c.4.2.6.5.7.9,0,.6-.2,1-.8,1-1.1.1-2.1-.3-3.1-1.3-1-1-1.5-2.2-1.7-3.6-.2-1.7.2-3.2,1.3-4.4,1.1-1.2,2.6-1.9,4.5-2.1,2-.2,3.7.1,5.1,1.1,1.4.9,2.2,2.3,2.4,4.1.2,1.6-.2,2.9-1.1,4s-2.2,1.8-3.8,2h0ZM249.8,113c-.2,0-.3.2-.3.6l.7,6c0,.3.2.5.4.5.9,0,1.6-.5,2.2-1.3.6-.7.8-1.6.7-2.4-.1-.9-.5-1.7-1.3-2.4-.8-.7-1.6-1-2.4-.9h0Z"/>
  <path class="st1" d="M255.9,130c0,.4,0,.9-.2,1.5,1.6,0,2.5,1,2.5,2.8,0,.8-.2,1.4-.6,1.9s-.9.8-1.5.8c-.4,0-.8-.1-1-.4-.3-.2-.4-.6-.4-.9s0-.5.3-.7c.2-.2.4-.3.6-.3s.5.2.8.5c.3-.3.5-.6.5-1,0-.9-.6-1.3-1.7-1.3-.8,1.3-2,1.9-3.4,2-1.1,0-2.1-.4-2.9-1.3s-1.2-1.9-1.2-3.2c0-.9.2-1.9.6-2.9.1-.3.2-.5.2-.7,0-.2-.1-.4-.3-.6s-.5-.3-.7-.3c-.9,0-1.3.9-1.3,2.7h0v.9c0,1.6-.1,2.9-.4,3.9-.3.9-.7,1.7-1.3,2.2s-1.3.8-2,.8c-1.2,0-2.2-.5-2.9-1.6s-1.1-2.6-1.1-4.6.3-3.4.9-4.5c.6-1.1,1.6-1.7,2.7-1.7,1.4,0,2.3.7,2.9,2.2.5-1.4,1.3-2.1,2.4-2.1,1.2,0,2,.6,2.4,2,.6-.4,1.3-.7,2.1-.7,1.1,0,2.1.4,2.9,1.3s1.2,2,1.2,3.3h0ZM244.6,130.3c0-1.3-.2-2.4-.6-3.1-.4-.8-1-1.1-1.6-1.1s-1.2.4-1.6,1.1c-.4.8-.6,1.8-.5,3,0,1.3.2,2.4.6,3.2.4.8,1,1.1,1.6,1.1.7,0,1.2-.4,1.6-1.1s.6-1.8.5-3.1h0ZM254.3,130.1c0-.7-.2-1.4-.7-1.9s-1-.8-1.6-.8h-.1c-.7,0-1.3.3-1.8.8s-.7,1.2-.6,2c0,.8.2,1.5.7,2s1,.8,1.7.8c.7,0,1.3-.3,1.8-.8.5-.5.7-1.2.7-2h0Z"/>
  <path class="st1" d="M241.8,143.3c.2-1.7,1-3.1,2.3-4,1.3-.9,3-1.2,5-1,2,.2,3.6.9,4.7,2.1,1.1,1.2,1.5,2.7,1.3,4.5-.2,1.8-1,3.2-2.3,4.1-1.3.9-3,1.2-5,1s-3.6-1-4.7-2.2c-1.1-1.2-1.6-2.7-1.4-4.5h0ZM253.5,144.7c.1-1.2-.2-2.1-.9-2.9-.7-.8-1.9-1.3-3.3-1.5h-.3c-1.6-.2-2.8,0-3.8.5-1,.6-1.5,1.4-1.6,2.6-.1,1.2.2,2.2,1,3s2,1.3,3.6,1.5c3.3.4,5.1-.7,5.4-3.2Z"/>
  <path class="st1" d="M252.7,158.8c-.2,1.1-.7,1.9-1.5,2.5h.1c.6.2.8.5.7,1-.1.5-.5.8-1,.6-.1,0-.3,0-.7-.2-.3-.1-.6-.2-1-.3-.2,0-.5,0-.9-.1-.4,0-.7,0-.9-.1-.6-.1-.9-.5-.8-1,.1-.5.4-.7,1-.6l.8.2c.5.1,1,0,1.4-.6s.8-1.1,1-1.8c.2-.8.1-1.4-.1-2s-.7-1-1.3-1.1c-1-.2-1.8.3-2.4,1.7l-.5,1.4c-1,2.7-2.5,3.8-4.4,3.4-1.2-.3-2-.9-2.5-2-.5-1.1-.6-2.3-.3-3.8.3-1.4,1-2.4,1.9-3.2-.2,0-.3,0-.5-.1-.6-.1-.8-.5-.7-1,.1-.6.5-.8,1.2-.7-.1,0,.3.1,1.2.4.2,0,.4.1.7.2.4,0,.8.1,1.1.2.4,0,.6,0,.8,0,.6.1.8.5.7,1,0,.3-.2.5-.4.6s-.6,0-1.3-.1c-.7-.1-1.4,0-2,.7s-1,1.5-1.3,2.6c-.2.8-.1,1.5.2,2.1s.7,1,1.4,1.1c1.1.2,1.9-.5,2.5-2.2.6-1.6,1.2-2.8,1.9-3.6s1.6-1,2.8-.7c1.1.3,2,.9,2.5,1.9.5,1,.6,2.2.3,3.6h0Z"/>
  <path class="st1" d="M246.6,178.2c-.6,1.5-1.7,2.4-3.2,2.7l2.3,1c.6.3,1,.4,1.1.4.5.1.8,0,1-.4,0-.1.1-.3.1-.6,0-.2.1-.4.1-.6.2-.6.6-.8,1.1-.6.5.2.6.7.3,1.5,0,.1-.2.3-.3.6-.2.5-.4.7-.4.7,0,.1-.1.4-.2.6s-.1.5-.2.6c-.2.4-.6.5-1.2.3h-.2c0-.1-.4-.3-1.2-.7,0,0-.7-.3-1.8-.8-.8-.4-1.3-.6-1.7-.8l-2.3-.9-3.9-1.6c-1-.4-1.7-.6-2-.6-.3,0-.5.1-.6.4,0,.2-.1.4-.1.5,0,.3-.1.4-.2.5-.2.6-.6.8-1.1.6-.5-.2-.6-.7-.4-1.4,0-.1.2-.4.4-.7.2-.3.3-.5.4-.7,0,0,0-.2.2-.6,0-.2,0-.4.1-.5.2-.4.5-.5,1.1-.3h.1c0,0,.4.2.4.2-.8-1.3-.8-2.7-.2-4.2.7-1.6,1.8-2.6,3.3-3.1,1.5-.5,3.2-.3,5.1.4,1.9.8,3.2,1.9,3.9,3.3s.8,2.9.1,4.5h0ZM237,178.1c.5.3,1.1.6,1.9.9,1,.4,1.8.7,2.1.8.8.2,1.6.1,2.2-.2.8-.4,1.3-1,1.7-1.8.5-1.1.4-2.1-.2-3.1s-1.6-1.7-3-2.3c-1.5-.6-2.8-.8-3.9-.5s-1.9,1-2.4,2.1c-.4.8-.4,1.6-.1,2.4s.8,1.4,1.5,1.8h0Z"/>
  <path class="st1" d="M231.8,194.9c-.6-.3-.9-.5-.9-.7,0-.1,0-.4.2-.7l3.9-6.9c.1-.2.1-.3.1-.4,0,0,0-.2-.2-.2-1.1-.6-2.2-.8-3.3-.6s-1.9.9-2.5,1.8c-.4.6-.5,1.3-.5,2.1s.3,1.3.7,1.8l.5.6c.3.3.3.6.1,1-.3.5-.7.6-1.3.3-.9-.5-1.5-1.5-1.7-2.9s0-2.7.8-3.9c.9-1.5,2.1-2.4,3.6-2.8s3.2,0,4.9,1c1.8,1,2.9,2.3,3.5,3.9.6,1.6.4,3.1-.5,4.7-.8,1.4-1.9,2.2-3.3,2.6-1.4.4-2.8.1-4.2-.6h0ZM236.9,187.3c-.2-.1-.4,0-.6.3l-3,5.2c-.2.3-.2.5,0,.6.8.4,1.6.5,2.5.3.9-.3,1.6-.8,2-1.6.5-.8.6-1.7.4-2.7-.2-1-.7-1.7-1.4-2.1h0Z"/>
  <path class="st1" d="M230.8,201.7l-6.4-4.4c-.7-.5-1.2-.5-1.4-.2,0,0-.1.3-.3.6,0,.2-.1.3-.2.4-.3.5-.7.5-1.2.2-.4-.3-.5-.8-.1-1.3.1-.2.4-.6.8-1s.7-.8.9-1.1c.1-.2.4-.6.6-1,.2-.5.4-.8.6-1h0c.4-.7.9-.8,1.3-.5.4.3.5.7.1,1.1,0,0,0,0-.1.1,0,0-.1.1-.2.2-.3.3-.5.5-.5.5-.2.2-.2.5,0,.7s.7.6,1.6,1.3l1.4,1,3.2,2.2,3.7,2.6c.4.3.7.4.9.5.4.1.7,0,.9-.2,0,0,.1-.2.3-.6,0-.2.1-.3.2-.4.3-.5.7-.6,1.1-.2.4.3.5.8.1,1.3-.1.1-.2.3-.3.4l-.4.4c-.2.2-.3.4-.4.5,0,.1-.2.4-.4.7s-.3.5-.4.7c-.2.3-.5.3-.9,0-.1-.1-.2-.2-.3-.2-1-.8-2.4-1.9-4.4-3.2h0Z"/>
  <path class="st1" d="M222.6,214.2l-.6-.6c.3,1.6-.1,3-1.2,4.1-1.1,1.2-2.5,1.8-4,1.7-1.5,0-3-.8-4.4-2.1-1.6-1.5-2.4-3-2.6-4.6-.2-1.6.3-3.1,1.5-4.4,1-1.1,2.2-1.6,3.5-1.5l-1.5-1.4c-.5-.4-.8-.7-.9-.8-.4-.3-.8-.3-1.1,0,0,0-.2.2-.3.4s-.2.4-.3.4c-.4.4-.8.4-1.1,0s-.4-.8.1-1.3c.2-.2.4-.4.8-.8.3-.2.7-.6,1.2-1.1.3-.3.5-.5.6-.8.4-.5.7-.9.8-1.1.2-.2.4-.3.7-.4.3,0,.5,0,.6.2.4.4.4.8,0,1.2,0,0-.2.2-.4.3-.2.2-.4.3-.5.4-.2.2-.2.5,0,.8s.8.9,1.9,2l7,6.6c.6.5,1,.6,1.3.3,0,0,.2-.2.3-.4.1-.2.2-.4.3-.5.4-.4.8-.5,1.2-.1.4.4.3.8-.2,1.4-.1.1-.3.3-.4.4-.3.3-.5.5-.7.6-.1.1-.2.3-.4.5s-.3.4-.4.5c-.3.3-.6.3-.9,0h0ZM220.1,212.4c-.4-.6-.9-1.2-1.6-1.8,0,0-.1-.1-.3-.3-.1-.1-.2-.2-.2-.2-.8-.8-1.5-1.3-2-1.5s-1.1-.3-1.7-.1-1.3.5-1.8,1.1c-.8.9-1.1,1.9-1,2.9s.9,2.2,2.1,3.3c2.4,2.3,4.5,2.6,6.1.9.6-.6.9-1.3.9-2.1s0-1.5-.5-2.1h0Z"/>
  <path class="st1" d="M202.5,226.8c-.4-.5-.6-.8-.6-1,0-.2.1-.4.4-.6l6.1-5.1c.2-.1.3-.2.3-.3s0-.2-.1-.3c-.8-1-1.8-1.5-2.9-1.7s-2.1.1-3,.8c-.6.5-.9,1.1-1.2,1.8-.2.7-.2,1.3,0,1.9l.3.7c.2.4,0,.7-.2,1-.5.4-.9.4-1.3-.1-.7-.8-.9-1.9-.6-3.3s1-2.5,2.1-3.4c1.4-1.1,2.8-1.6,4.4-1.3s3,1.1,4.2,2.6c1.3,1.6,1.9,3.2,1.9,4.9s-.7,3.1-2.1,4.2c-1.2,1-2.5,1.4-4,1.3-1.5-.2-2.7-.9-3.8-2.1h0ZM209.9,221.5c-.1-.2-.4-.1-.6,0l-4.6,3.8c-.3.2-.3.4-.2.6.6.7,1.3,1.1,2.2,1.1s1.7-.2,2.4-.8c.7-.6,1.2-1.4,1.3-2.4.2-1,0-1.8-.6-2.5h0Z"/>
  <path class="st1" d="M199.9,234l-.4-.6c-.2,1.6-.9,2.9-2.3,3.8-.8.5-1.6.8-2.5.8-.9,0-1.7-.1-2.3-.6-.5-.4-1-.9-1.5-1.7l-2.6-4c-.4-.6-.6-1-.7-1.1-.4-.4-.7-.6-1-.4-.1,0-.3.2-.5.4-.2.2-.3.3-.4.3-.2.1-.4.2-.6.1-.2,0-.4-.1-.5-.3-.1-.2-.2-.4,0-.7s.2-.4.5-.6c.2-.1.5-.3,1-.5s.9-.5,1.3-.7c.4-.2.7-.4.9-.6.6-.5,1-.8,1-.9.6-.4,1-.3,1.3.2.3.4.2.8-.3,1.1-.1,0-.2.1-.4.2-.3.1-.5.2-.6.2-.3.2-.3.7.2,1.5l.7,1.1.8,1.3,1,1.6c.5.8.8,1.2,1.1,1.5.5.4,1,.7,1.6.7.7,0,1.3-.1,1.9-.5,1.1-.7,1.7-1.6,1.6-2.8,0-.8-.4-1.8-1.3-3.1l-1.8-2.8c-.4-.6-.7-1-.9-1.2s-.5-.2-.7,0c-.1,0-.2.2-.4.4s-.3.3-.4.4c-.4.3-.8.2-1.1-.3-.3-.5-.2-.9.4-1.2.1,0,.5-.3,1.2-.6.3-.2.7-.4,1.1-.6.3-.2.7-.5,1.1-.8.6-.5.9-.7,1-.8.6-.4,1-.3,1.4.1.3.4.2.8-.2,1.1,0,0-.2.1-.4.2s-.4.2-.6.3c-.4.3-.4.8.1,1.6l1.5,2.3,1.6,2.6.5.7c.3.5.6.8.8.9.2.1.4.1.6,0,.1,0,.2-.2.4-.3s.3-.3.4-.3c.5-.3.9-.3,1.2.2.3.5.1.9-.5,1.3,0,0-.2,0-.2.1l-.8.4c-.2.1-.4.3-.6.4-.3.3-.5.4-.5.4-.4.3-.8.2-1-.2h0Z"/>
  <path class="st1" d="M178.9,236.4l.7,1.4c.3.6.2,1.1-.4,1.3-.5.3-1,0-1.3-.6-.8-1.6-1.2-2.9-1.1-3.7.1-1.1.9-2,2.1-2.7,1.2-.6,2.2-.6,3.1-.1.6.4,1.3,1.2,2,2.6l2.7,5.4c.2.3.4.4.7.2l.7-.4c.2-.1.5-.1.7,0,.2,0,.4.2.5.4.1.2.1.4,0,.7,0,.2-.2.4-.4.5l-.9.4c-.2.1-.3.3-.2.6l1.1,2.3c.3.6.1,1-.4,1.3-.5.3-.9.1-1.2-.4l-1.2-2.4c-.1-.2-.3-.3-.6-.1l-2.4,1.2c-.6.3-1,.2-1.2-.4-.3-.6-.1-1,.5-1.3l2.5-1.2c.2-.1.2-.3,0-.6l-2.7-5.5c-.8-1.6-1.7-2.1-2.7-1.6s-1.3,1.4-.7,2.7h0Z"/>
  <path class="st1" d="M166.9,245.4c-.2-.6-.3-1-.3-1.1,0-.2.2-.3.6-.5l7.5-2.8c.2,0,.3-.1.4-.2s0-.2,0-.3c-.4-1.2-1.2-2-2.2-2.5-1-.5-2-.6-3.1-.2-.7.3-1.2.7-1.7,1.3s-.6,1.2-.6,1.9v.8c0,.4-.1.7-.5.9-.6.2-1,0-1.2-.6-.4-1-.2-2.1.5-3.3s1.8-2,3.1-2.5c1.6-.6,3.2-.6,4.5.2s2.4,2,3.1,3.9c.7,1.9.8,3.6.2,5.2-.6,1.6-1.7,2.7-3.4,3.3-1.5.6-2.9.5-4.2-.1-1.3-.6-2.3-1.7-2.9-3.2h0ZM175.6,242.8c0-.2-.3-.3-.6-.1l-5.6,2.1c-.3.1-.4.3-.4.5.3.8.9,1.4,1.8,1.8s1.7.4,2.6,0c.9-.3,1.6-.9,2-1.9s.6-1.8.3-2.5h0Z"/>
  <path class="st1" d="M157.2,239.9c1.7-.4,3.2-.2,4.5.7s2.2,2.4,2.7,4.4c.5,2,.4,3.7-.4,5.1s-2,2.4-3.7,2.8c-1.8.4-3.3.2-4.6-.7s-2.2-2.3-2.7-4.3-.4-3.7.4-5.2c.8-1.5,2-2.4,3.8-2.9h0ZM160,251.3c1.1-.3,1.9-.9,2.4-1.9.4-1,.5-2.2.2-3.6v-.3c-.5-1.5-1.1-2.6-1.9-3.4s-1.9-.9-3-.6c-1.2.3-2,1-2.5,2s-.5,2.3-.1,3.9c.8,3.2,2.4,4.6,4.9,3.9h0ZM158.7,257.2c-.1-.4.1-.8.6-1.2l3.1-2.4c.2-.1.3-.2.3-.2.3,0,.5,0,.6.5,0,.2,0,.5-.3.8l-2.6,2.7c-.2.2-.4.4-.7.4-.6.1-.9,0-1-.6h0Z"/>
  <path class="st1" d="M147.8,254.2v-.7c-.9,1.4-2.2,2.2-3.8,2.4-.9.1-1.8,0-2.6-.4-.9-.4-1.5-.9-1.8-1.5-.3-.5-.5-1.3-.6-2.2l-.6-4.7c0-.7-.1-1.1-.2-1.3-.1-.6-.4-.8-.8-.8-.1,0-.3,0-.6.1s-.4.1-.5.1c-.2,0-.4,0-.6-.2s-.3-.3-.3-.5c0-.2,0-.5.2-.7.2-.2.4-.3.7-.3.2,0,.6,0,1.2,0s1,0,1.5,0c.4,0,.8-.1,1.1-.2.8-.2,1.2-.3,1.3-.3.7,0,1,.2,1.1.8,0,.5-.2.8-.8.9-.1,0-.3,0-.5,0-.3,0-.5,0-.6,0-.4,0-.6.5-.5,1.4v1.3c.1,0,.3,1.5.3,1.5l.2,1.9c.1.9.2,1.5.3,1.8.2.6.6,1.1,1.1,1.4.6.3,1.2.4,1.9.4,1.3-.2,2.2-.8,2.7-1.8.3-.7.4-1.8.2-3.4l-.4-3.3c0-.7-.2-1.2-.3-1.5-.1-.2-.3-.4-.6-.3-.1,0-.3,0-.5.1-.2,0-.4.1-.6.2-.5,0-.8-.2-.9-.7,0-.5.2-.9.9-.9.1,0,.6,0,1.3,0,.4,0,.8,0,1.2,0,.4,0,.8-.1,1.4-.3.7-.2,1.1-.3,1.2-.3.7,0,1.1.2,1.1.7,0,.5-.2.8-.7.9,0,0-.2,0-.5,0-.2,0-.5,0-.7,0-.5,0-.7.6-.6,1.5l.3,2.8.4,3v.9c.2.6.3.9.5,1.1s.3.3.6.2c.1,0,.3,0,.5-.1.2,0,.4-.1.5-.1.6,0,.9.2,1,.7,0,.5-.3.9-1,1-.1,0-.2,0-.2,0h-.9c-.3,0-.5,0-.7.2-.4,0-.6.1-.7.1-.5,0-.8-.2-.8-.7h0Z"/>
  <path class="st1" d="M128.5,250.5c0,.6-.4.9-1,.8h-3.9c-.7-.2-1-.5-1-1,0-.6.4-.9,1-.9h3.9c.7.2,1,.5,1,1h0Z"/>
  <path class="st1" d="M110.3,256.1c.4,0,.7.2.9.6.2.3.3.7.3,1s-.2.7-.6.9c-.3.2-.7.3-1,.2s-.7-.2-.9-.6-.3-.7-.3-1c0-.4.2-.7.6-.9s.7-.3,1.1-.3ZM116.8,241c0-.4.2-.6.6-.9-.4-.4-.8-.6-1.3-.7-.9-.1-1.6,0-2.1.5s-.8,1.3-1,2.5l-1.2,7.8c-.2,1.5-.3,2.4-.3,2.7s.2.6.6.6c.2,0,.4,0,.7,0,.2,0,.3,0,.5,0,.5,0,.8.4.7.9,0,.5-.5.8-1.2.7-.2,0-.5,0-.6-.1-.5-.1-.9-.2-1.1-.2-.1,0-.3,0-.6,0s-.5,0-.6,0c-.5,0-.7-.4-.6-.9,0,0,0-.2,0-.5,0-.3.1-.5.1-.7,0-.3.2-.9.3-1.8.2-1,.3-1.8.4-2.4l.8-5.6c.2-1,.3-1.7.5-2.2.3-.8.7-1.4,1.2-1.9.9-.8,2.1-1.1,3.5-.9,1,.1,1.8.5,2.4,1.1.6.6.8,1.3.7,2,0,.4-.2.7-.5,1-.3.2-.6.3-1,.3-.3,0-.6-.2-.8-.4-.2-.2-.3-.5-.2-.8h0Z"/>
  <path class="st1" d="M98.2,240l-.2.8c1.2-1,2.6-1.2,4.3-.8,1.9.5,3.1,1.4,3.5,2.8.2.6.2,1.2,0,2,0,.3-.2,1.1-.5,2.1l-.5,2c-.6,2.2-.6,3.4-.1,3.5,0,0,.3,0,.5,0s.4,0,.5,0c.6.1.8.5.7,1-.1.5-.5.7-1.2.5-.2,0-.4-.1-.7-.2-.3-.1-.5-.2-.7-.2-.2,0-.4,0-.8-.1-.2,0-.4,0-.4,0-.5-.1-.7-.5-.5-1.1v-.5c.1,0,.5-1.6.5-1.6l.5-1.8.4-1.6c.4-1.4.5-2.4.4-3.1-.1-1.1-.9-1.9-2.3-2.2-.7-.2-1.3-.2-2,0-.6.2-1.1.5-1.4,1-.4.6-.8,1.7-1.3,3.5l-.3,1.3c-.2,1-.4,1.5-.4,1.6-.1.8,0,1.2.3,1.3.2,0,.3,0,.4.1h.3c.6.2.8.5.7,1-.1.6-.5.8-1.2.6-.2,0-.4-.1-.7-.2s-.5-.2-.7-.2c-.1,0-.3,0-.6-.1s-.5,0-.6-.1c-.5-.1-.7-.4-.5-1,0-.2.1-.4.2-.5.2-.6.5-1.5.8-2.7l.9-3.8c.2-1,.4-1.6.4-1.7.1-.9,0-1.4-.3-1.5-.1,0-.3,0-.5,0s-.4,0-.5,0c-.6-.1-.8-.5-.6-1,.1-.6.6-.7,1.2-.6.2,0,.3.1.6.2.4.1.6.2.7.3,0,0,.2,0,.5,0,.2,0,.4,0,.5,0,.4.1.6.4.5.9h0Z"/>
  <path class="st1" d="M80.5,240.9c.2-.6.4-.9.5-1,.1-.1.4,0,.8,0l7.4,2.9c.2,0,.3.1.4,0s.2-.1.2-.2c.5-1.2.5-2.3,0-3.3s-1.1-1.8-2.2-2.2c-.7-.3-1.4-.3-2.1-.2-.7.1-1.3.5-1.7,1l-.5.6c-.2.3-.6.4-1,.3-.6-.2-.8-.6-.5-1.2.4-1,1.3-1.7,2.6-2.1s2.7-.3,4,.2c1.6.6,2.7,1.7,3.3,3.2.5,1.5.4,3.1-.3,5-.7,1.9-1.8,3.2-3.3,4s-3.1.9-4.7.2c-1.5-.6-2.5-1.5-3.1-2.9s-.6-2.8,0-4.3h0ZM88.7,244.8c0-.2,0-.4-.4-.5l-5.6-2.2c-.3-.1-.5,0-.6.1-.3.8-.3,1.7,0,2.5.4.9,1,1.4,1.8,1.8.9.3,1.8.3,2.8,0s1.6-.9,1.9-1.7h0Z"/>
  <path class="st1" d="M70.6,242.1c-.4-.2-.8-.5-1.2-.9-.8,1.4-2.1,1.7-3.7.8-.7-.4-1.2-.8-1.4-1.4-.3-.6-.3-1.2,0-1.7.2-.4.5-.6.8-.7.4-.1.7-.1,1,0,.2.1.4.3.5.6,0,.3,0,.5,0,.7-.1.2-.4.4-.9.5,0,.4.3.7.7.9.8.4,1.4.1,2-.8-.7-1.4-.8-2.7,0-3.9.5-1,1.4-1.7,2.5-1.9s2.3-.1,3.4.5c.8.4,1.6,1.1,2.2,1.9.2.2.4.4.5.5.2.1.4.1.7,0,.3-.1.5-.3.6-.5.4-.8-.2-1.6-1.7-2.4h-.1c-.1-.1-.2-.2-.4-.3s-.2-.1-.3-.1c-1.4-.7-2.5-1.5-3.2-2.2-.7-.7-1.1-1.4-1.3-2.2-.2-.8-.1-1.5.2-2.2.6-1.1,1.5-1.7,2.8-1.8,1.3-.1,2.8.3,4.5,1.2,1.7.9,2.9,1.9,3.5,3s.7,2.2.2,3.2c-.6,1.2-1.8,1.7-3.4,1.5,1,1.1,1.2,2.1.7,3.1-.6,1-1.5,1.4-2.9,1.2.1.7,0,1.4-.4,2.1-.5,1-1.4,1.6-2.5,1.9s-2.3,0-3.4-.5h0ZM71.3,240.6c.7.3,1.3.4,2,.3s1.2-.5,1.5-1h0c.3-.8.4-1.4.2-2.1-.2-.6-.7-1.1-1.4-1.5-.7-.4-1.4-.5-2.1-.4s-1.2.5-1.5,1.2c-.3.6-.4,1.3-.1,1.9.2.7.7,1.2,1.4,1.6h0ZM75.8,232c1.2.6,2.2.9,3.1.9s1.5-.3,1.8-.9c.3-.6.2-1.3-.2-2-.5-.7-1.3-1.3-2.4-1.9-1.2-.6-2.2-.9-3.1-.9s-1.5.3-1.8.9c-.3.6-.3,1.3.2,2s1.3,1.4,2.4,2h0Z"/>
  <path class="st1" d="M65.7,223.5c1.4,1,2.3,2.3,2.4,3.9s-.3,3.2-1.5,4.9c-1.2,1.7-2.5,2.7-4.1,3.1-1.6.4-3.1,0-4.5-.9-1.5-1-2.3-2.3-2.5-3.9s.3-3.2,1.4-4.9c1.2-1.7,2.5-2.7,4.1-3.1,1.6-.4,3.1,0,4.6.9h0ZM59,233.1c1,.7,2,.9,3,.6,1-.3,2-1.1,2.9-2.2l.2-.3c.9-1.3,1.3-2.5,1.3-3.6s-.5-2-1.5-2.7c-1-.7-2.1-.9-3.1-.5-1.1.3-2.1,1.2-3,2.5-1.9,2.8-1.8,4.9.3,6.3h0Z"/>
  <path class="st1" d="M46.9,225.9c-.8-.7-1.4-1.6-1.5-2.5h0c-.4.6-.8.6-1.2.3-.4-.4-.5-.7,0-1.1,0,0,.2-.3.5-.5.3-.2.5-.4.7-.7.1-.1.3-.4.5-.7.2-.3.4-.6.5-.7.4-.5.8-.5,1.2-.2.4.3.4.7,0,1.1l-.5.6c-.3.4-.4.9-.2,1.5.2.6.6,1.2,1.1,1.7.6.5,1.2.8,1.8.8.7,0,1.2-.2,1.5-.6.7-.8.6-1.8-.4-2.9l-1-1.1c-1.9-2.1-2.2-4-.9-5.5.8-.9,1.8-1.4,3-1.3,1.2,0,2.3.5,3.5,1.5,1,.9,1.7,2,2,3.2.1-.1.2-.2.3-.4.4-.5.8-.5,1.2-.1.5.4.5.9,0,1.4,0,0-.2.2-1,.9-.2.2-.3.3-.5.5-.3.3-.5.6-.7.9s-.3.5-.5.7c-.4.4-.8.5-1.2.1-.3-.2-.4-.4-.3-.6,0-.2.3-.6.8-1.1.5-.6.6-1.2.3-2.1-.3-.8-.8-1.6-1.7-2.4-.6-.5-1.3-.8-2-.9s-1.2.2-1.6.7c-.7.9-.5,1.9.8,3.3,1.2,1.3,2,2.4,2.3,3.3s.1,1.9-.7,2.9c-.8.9-1.7,1.3-2.9,1.3-1.1,0-2.2-.5-3.3-1.4h0Z"/>
  <path class="st1" d="M32.6,211.4c-1-1.3-1.3-2.6-.9-4.1l-2,1.6c-.5.4-.8.7-.9.8-.3.4-.4.7-.2,1,0,.1.2.2.4.4.2.2.3.3.4.4.4.5.4.9,0,1.2-.4.4-.9.2-1.4-.4,0-.1-.2-.3-.4-.6-.3-.4-.5-.7-.5-.7-.1-.1-.2-.3-.5-.5s-.4-.4-.5-.5c-.3-.4-.2-.8.3-1.2l.2-.2s.4-.3,1.1-.8c0,0,.6-.5,1.5-1.2.7-.5,1.2-.9,1.5-1.2l1.9-1.6,3.2-2.7c.8-.7,1.3-1.2,1.5-1.4.2-.2.1-.5,0-.7-.1-.2-.3-.3-.4-.4-.2-.2-.3-.3-.4-.4-.4-.5-.4-.9,0-1.3.4-.4.9-.2,1.4.3.1.1.2.3.4.6s.3.5.4.6c0,0,.2.2.4.4.2.1.3.2.4.4.3.4.2.7-.3,1.1h0c0,0-.3.4-.3.4,1.5,0,2.8.5,3.8,1.8,1.1,1.3,1.5,2.8,1.2,4.4-.3,1.6-1.2,3-2.8,4.3-1.6,1.3-3.1,1.9-4.7,1.9-1.6,0-2.9-.7-4-2h0ZM37.2,202.9c-.5.3-1,.7-1.7,1.3-.9.7-1.4,1.2-1.7,1.6-.5.6-.8,1.3-.8,2.1s.3,1.6.8,2.3c.8.9,1.7,1.3,2.8,1.3s2.2-.6,3.4-1.5c1.2-1,2-2.1,2.2-3.2s0-2.1-.7-3.1c-.6-.7-1.3-1.1-2.1-1.2-.8-.1-1.5,0-2.3.5h0Z"/>
  <path class="st1" d="M24.7,190.5c.5-.3.9-.5,1-.5s.4.2.6.5l4.3,6.7c.1.2.2.3.3.3,0,0,.2,0,.3,0,1.1-.7,1.7-1.6,2-2.6s.2-2.1-.5-3c-.4-.6-.9-1.1-1.6-1.4s-1.3-.4-1.9-.2l-.7.2c-.4.1-.7,0-1-.4-.3-.5-.2-.9.3-1.3.9-.6,2-.6,3.3-.2,1.3.5,2.3,1.3,3.1,2.5,1,1.5,1.2,3,.8,4.5s-1.5,2.8-3.2,3.9c-1.7,1.1-3.4,1.5-5.1,1.3s-3-1.1-3.9-2.6c-.9-1.3-1.1-2.7-.8-4.1.3-1.4,1.2-2.6,2.6-3.4h0ZM29.1,198.5c.2-.1.2-.3,0-.6l-3.2-5.1c-.2-.3-.4-.4-.6-.2-.8.5-1.2,1.2-1.4,2.1-.2.9,0,1.8.5,2.5.5.8,1.2,1.3,2.2,1.6,1,.3,1.8.2,2.5-.2h0Z"/>
  <path class="st1" d="M19.2,186.5l6.9-3.6c.8-.4,1-.8.8-1.2,0,0-.2-.3-.4-.5-.1-.2-.2-.3-.2-.3-.3-.5-.1-.9.4-1.1.5-.2.9,0,1.2.5.1.2.3.6.5,1.2.2.6.4,1,.5,1.2.1.2.3.6.6,1,.3.4.5.8.6,1h0c.3.7.2,1.2-.3,1.5-.5.2-.8.1-1.1-.4,0,0,0,0,0-.2,0-.1,0-.2,0-.2-.1-.4-.2-.7-.2-.7-.1-.3-.3-.4-.6-.3s-.9.3-1.9.8l-1.6.8-3.5,1.8-4,2.1c-.4.2-.7.4-.9.5-.3.3-.4.6-.2.9,0,0,.1.2.4.5.1.1.2.3.2.4.3.5.2.9-.3,1.1-.5.2-.9,0-1.2-.5,0-.2-.1-.3-.2-.4l-.2-.6c0-.2-.2-.5-.3-.6,0-.1-.2-.4-.4-.6s-.3-.5-.4-.6c-.2-.3,0-.6.4-.9.1,0,.3-.1.3-.1,1.2-.5,2.8-1.3,4.9-2.4h0Z"/>
  <path class="st1" d="M11.9,173.4l.8-.3c-1.5-.5-2.6-1.5-3.1-3-.5-1.6-.4-3,.4-4.3.8-1.3,2.1-2.3,4-2.9,2-.7,3.8-.7,5.3-.2s2.6,1.7,3.1,3.4c.5,1.4.4,2.7-.3,3.8l2-.7c.6-.2,1-.4,1.1-.4.5-.3.6-.6.5-.9,0-.1-.1-.3-.2-.5-.1-.2-.2-.4-.2-.5-.2-.5,0-.9.5-1s.9,0,1.1.7c0,.2.2.6.3,1.1,0,.4.2.9.5,1.6.1.4.2.7.4.9.3.6.5,1,.5,1.2,0,.3,0,.5,0,.8,0,.2-.3.4-.5.5-.5.2-.8,0-1-.5,0,0,0-.2,0-.5,0-.3,0-.5-.1-.6-.1-.3-.3-.4-.6-.4-.3,0-1.2.3-2.6.8l-9.2,3.1c-.7.3-1,.6-.9,1,0,.1.1.3.3.5.1.2.2.4.3.5.2.6,0,1-.5,1.1-.5.2-.9,0-1.1-.8,0-.2-.1-.4-.2-.6-.1-.4-.2-.7-.2-.9,0-.1-.1-.3-.2-.6-.1-.3-.2-.4-.2-.6-.1-.4,0-.7.5-.8h0ZM14.7,172c.7,0,1.4-.2,2.3-.5,0,0,.2,0,.4-.1.1,0,.2,0,.3-.1,1.1-.4,1.8-.7,2.2-1.1.4-.3.7-.8.9-1.5s.2-1.4,0-2.1c-.4-1.1-1.1-1.9-2.1-2.2-1-.3-2.3-.2-3.9.3-3.2,1.1-4.4,2.7-3.6,5,.3.8.7,1.4,1.4,1.8.7.4,1.4.6,2.1.5h0Z"/>
  <path class="st1" d="M10.2,149.7c.6-.1,1-.2,1.2-.1s.3.3.4.7l1.6,7.8c0,.2.1.4.2.4,0,0,.2,0,.3,0,1.2-.3,2.2-.8,2.8-1.8.7-.9.9-1.9.6-3-.1-.7-.5-1.3-1-1.9-.5-.5-1.1-.8-1.7-.9h-.8c-.4-.1-.7-.3-.8-.8-.1-.6.1-1,.7-1.1,1.1-.2,2.1.1,3.2,1,1,.9,1.7,2.1,2,3.4.4,1.7,0,3.2-.9,4.5-.9,1.3-2.4,2.1-4.3,2.5-2,.4-3.7.2-5.2-.6s-2.4-2.1-2.8-3.8c-.3-1.5,0-2.9.8-4.1.8-1.2,2-2,3.6-2.3h0ZM11.5,158.8c.2,0,.3-.2.2-.6l-1.2-5.9c0-.3-.2-.5-.4-.4-.9.2-1.6.7-2.1,1.5-.5.8-.7,1.6-.5,2.5.2.9.7,1.7,1.5,2.3s1.6.8,2.5.7Z"/>
  <path class="st1" d="M5.1,144h.7c-1.4-.9-2.1-2.2-2.2-3.9,0-.9,0-1.8.5-2.6s.9-1.4,1.6-1.8c.6-.3,1.3-.5,2.2-.5l4.8-.4c.7,0,1.1-.1,1.3-.1.6-.1.8-.4.8-.8,0-.1,0-.3-.1-.6,0-.2-.1-.4-.1-.5,0-.2,0-.4.2-.6s.3-.3.5-.3c.2,0,.5,0,.6.2s.3.4.3.7c0,.2,0,.6,0,1.2,0,.5,0,1,0,1.5,0,.4,0,.8.1,1.1.2.8.3,1.3.3,1.3,0,.7-.2,1-.8,1.1-.5,0-.8-.2-.9-.8,0-.1,0-.3,0-.5,0-.3,0-.5,0-.6,0-.4-.5-.6-1.4-.6h-1.3c0,.1-1.5.2-1.5.2l-1.9.2c-.9,0-1.5.2-1.8.3-.6.2-1.1.6-1.4,1.1-.3.6-.5,1.2-.4,1.9.1,1.3.7,2.2,1.7,2.7.7.3,1.8.4,3.4.3l3.3-.3c.7,0,1.2-.1,1.5-.3.3-.1.4-.3.4-.6,0-.1,0-.3-.1-.5,0-.2-.1-.4-.1-.6,0-.5.2-.8.8-.8.5,0,.8.3.9.9,0,.1,0,.6,0,1.3s0,.8,0,1.2c0,.4.1.8.2,1.4.1.7.2,1.1.2,1.2,0,.7-.2,1.1-.8,1.1-.5,0-.8-.2-.9-.8,0,0,0-.2,0-.5,0-.2,0-.5,0-.7,0-.5-.5-.7-1.5-.7l-2.8.2-3,.2h-.9c-.6.2-.9.3-1.1.4s-.3.3-.3.6c0,.1,0,.3.1.5,0,.2.1.4.1.5,0,.6-.2.9-.7,1-.6,0-.9-.3-.9-1.1v-1.2c0-.3,0-.5,0-.7,0-.4-.1-.6-.1-.7,0-.5.2-.8.7-.8h0Z"/>
  <path class="st1" d="M12.9,124.3h-1.6c-.7,0-1-.4-1-1,0-.6.4-.9,1.2-.8,1.8,0,3.1.3,3.8.8,1,.7,1.4,1.7,1.4,3.1,0,1.3-.5,2.3-1.4,2.8-.6.4-1.7.6-3.2.5h-6c-.4-.1-.5,0-.5.3v.8c0,.3-.1.5-.3.7-.2.2-.4.3-.6.2-.2,0-.4-.1-.6-.3s-.3-.4-.3-.6v-1c0-.3-.1-.4-.4-.4H.7c-.6,0-.9-.4-.9-1.1,0-.6.3-.9,1-.9h2.7c.2,0,.4,0,.4-.4v-2.7c0-.6.4-.9,1-.9.6,0,.9.4.9,1v2.8c0,.2.1.4.4.4l6.2.2c1.8,0,2.6-.5,2.7-1.7,0-1.2-.7-1.8-2.1-1.9h0Z"/>
  <path class="st1" d="M10.5,109.6c.6,0,1,.2,1.1.3s.2.3.1.8l-1,7.9c0,.2,0,.4,0,.4s.1.1.3.1c1.2.2,2.3,0,3.3-.7.9-.6,1.5-1.5,1.6-2.6,0-.7,0-1.4-.4-2.1s-.8-1.1-1.4-1.4l-.7-.3c-.4-.2-.5-.5-.5-.9,0-.6.4-.9,1.1-.8,1.1.1,2,.8,2.7,2s1,2.5.8,3.9c-.2,1.7-1,3.1-2.3,3.9-1.3.9-2.9,1.2-4.9,1-2-.2-3.6-1-4.7-2.3-1.1-1.2-1.6-2.8-1.4-4.5.2-1.6.9-2.8,2.1-3.7,1.2-.9,2.6-1.2,4.2-1h0ZM8.7,118.5c.2,0,.4-.1.4-.5l.7-5.9c0-.3,0-.5-.3-.6-.9-.1-1.7.1-2.4.7s-1.1,1.3-1.3,2.2c-.1.9.1,1.8.7,2.7.6.8,1.3,1.3,2.1,1.4h0Z"/>
  <path class="st1" d="M3.9,96.8c.4,0,.7.5.8,1.1l.7,3.8c0,.3,0,.4,0,.4,0,.3-.3.4-.7.3-.2,0-.4-.3-.5-.6l-1.2-3.5c0-.3-.1-.6,0-.8.1-.6.5-.8,1-.6h0ZM19.8,103.6c-.4,1.7-1.3,2.9-2.8,3.7-1.4.7-3.1.9-5.1.4s-3.4-1.4-4.4-2.7c-.9-1.3-1.2-2.8-.8-4.6.4-1.8,1.4-3,2.8-3.8s3.1-.9,5.1-.4,3.5,1.4,4.4,2.8,1.2,2.9.8,4.7h0ZM8.4,100.7c-.3,1.1-.1,2.1.5,3,.6.8,1.7,1.5,3.1,1.9h.3c1.5.5,2.8.4,3.8,0s1.7-1.2,2-2.4c.3-1.2,0-2.2-.6-3.1-.7-.9-1.8-1.5-3.4-1.9-3.2-.8-5.2,0-5.8,2.5h0Z"/>
  <path class="st1" d="M11.5,88.5l.7.3c-.8-1.4-.9-2.9-.3-4.4.3-.8.8-1.6,1.6-2.1s1.5-.9,2.2-.9c.6,0,1.4.1,2.2.5l4.5,1.7c.7.3,1.1.4,1.2.4.6.1.9,0,1-.3,0-.1.1-.3.1-.6s0-.4.1-.5c0-.2.2-.3.4-.4s.4,0,.6,0c.2,0,.4.3.5.5,0,.2,0,.5,0,.8,0,.2-.2.6-.5,1s-.5.9-.6,1.4c-.2.4-.3.8-.3,1-.2.8-.3,1.2-.3,1.3-.2.6-.6.8-1.2.6-.5-.2-.6-.6-.4-1.1,0-.1.1-.3.2-.4.2-.3.3-.5.3-.5.1-.4-.2-.8-1-1.1l-1.2-.5-1.4-.6-1.8-.7c-.8-.3-1.4-.5-1.8-.5-.6,0-1.2,0-1.7.4-.6.4-1,.9-1.2,1.5-.5,1.2-.4,2.3.3,3.2.5.6,1.4,1.2,2.9,1.8l3.1,1.2c.7.3,1.2.4,1.5.4s.5-.1.6-.4c0-.1,0-.3.1-.6,0-.2,0-.4.1-.6.2-.5.5-.6,1.1-.4.5.2.6.6.4,1.2,0,.1-.2.5-.6,1.2-.2.3-.4.7-.5,1.1-.1.3-.3.8-.4,1.3-.2.7-.3,1.1-.3,1.2-.2.7-.6.9-1.2.7-.5-.2-.6-.5-.5-1.1,0,0,.1-.2.2-.4.1-.2.2-.4.3-.6.2-.5-.2-.9-1.1-1.3l-2.6-1-2.8-1.1-.8-.3c-.5-.2-.9-.2-1.2-.2-.2,0-.4.2-.5.4,0,.1,0,.3-.1.5s0,.4-.1.5c-.2.6-.6.8-1.1.6-.5-.2-.6-.7-.4-1.3,0,0,0-.2.1-.2l.4-.8c.1-.2.2-.5.2-.7.1-.4.2-.6.2-.7.2-.4.5-.6,1-.4h0Z"/>
  <path class="st1" d="M23.9,73.2c-.5-.3-.6-.7-.3-1.3l2-3.4c.3-.6.8-.7,1.2-.4.5.3.6.7.3,1.3l-2,3.4c-.3.6-.8.7-1.3.4h0Z"/>
</svg>