<?xml version="1.0" encoding="UTF-8"?>
<svg id="Layer_1" xmlns="http://www.w3.org/2000/svg" xmlns:xlink="http://www.w3.org/1999/xlink" version="1.1" viewBox="0 0 32 32">
  <!-- Generator: Adobe Illustrator 30.2.1, SVG Export Plug-In . SVG Version: 2.1.1 Build 1)  -->
  <defs>
    <style>
      .st0 {
        fill: none;
      }

      .st1 {
        fill: #e1ff00;
      }

      .st2 {
        fill: #ff8000;
      }

      .st3 {
        fill: #ff0048;
      }

      .st4 {
        fill: #c0f;
      }

      .st5 {
        fill: #3c00ff;
      }

      .st6 {
        fill: #f50;
      }

      .st7 {
        fill: #a200ff;
      }

      .st8 {
        fill: #f05;
      }

      .st9 {
        fill: #0026ff;
      }

      .st10 {
        fill: #f200ff;
      }

      .st11 {
        fill: #f01;
      }

      .st12 {
        fill: #0015ff;
      }

      .st13 {
        fill: #80f;
      }

      .st14 {
        fill: #ff002f;
      }

      .st15 {
        fill: #ea00ff;
      }

      .st16 {
        fill: #0037ff;
      }

      .st17 {
        fill: #00ff7b;
      }

      .st18 {
        fill: #9500ff;
      }

      .st19 {
        fill: #ff00fb;
      }

      .st20 {
        fill: #8000ff;
      }

      .st21 {
        fill: #d900ff;
      }

      .st22 {
        fill: #00ff1e;
      }

      .st23 {
        fill: #00f7ff;
      }

      .st24 {
        fill: #ff00e6;
      }

      .st25 {
        fill: #9f0;
      }

      .st26 {
        fill: #7300ff;
      }

      .st27 {
        fill: #fb00ff;
      }

      .st28 {
        fill: #00d5ff;
      }

      .st29 {
        fill: #ff00b3;
      }

      .st30 {
        fill: #ff001a;
      }

      .st31 {
        fill: #00ff2f;
      }

      .st32 {
        fill: #00ff26;
      }

      .st33 {
        fill: #ff00b7;
      }

      .st34 {
        fill: #20f;
      }

      .st35 {
        fill: #ff3c00;
      }

      .st36 {
        fill: #fc0;
      }

      .st37 {
        fill: #f04;
      }

      .st38 {
        fill: #002fff;
      }

      .st39 {
        fill: #ff0009;
      }

      .st40 {
        fill: #00a6ff;
      }

      .st41 {
        fill: #00ff04;
      }

      .st42 {
        fill: #ff0015;
      }

      .st43 {
        fill: #ff005e;
      }

      .st44 {
        fill: #5900ff;
      }

      .st45 {
        fill: #03f;
      }

      .st46 {
        fill: #ffe100;
      }

      .st47 {
        fill: #007bff;
      }

      .st48 {
        fill: #50f;
      }

      .st49 {
        fill: #ae00ff;
      }

      .st50 {
        fill: #ff0095;
      }

      .st51 {
        fill: #00ff4d;
      }

      .st52 {
        fill: #f70;
      }

      .st53 {
        fill: #ff2b00;
      }

      .st54 {
        fill: #fa0;
      }

      .st55 {
        fill: #00ffe1;
      }

      .st56 {
        fill: #09f;
      }

      .st57 {
        fill: #1eff00;
      }

      .st58 {
        fill: #0af;
      }

      .st59 {
        fill: #f02;
      }

      .st60 {
        fill: #f700ff;
      }

      .st61 {
        fill: #ff0059;
      }

      .st62 {
        fill: #ff009d;
      }

      .st63 {
        fill: #5eff00;
      }

      .st64 {
        fill: #2b00ff;
      }

      .st65 {
        fill: #00ffa2;
      }

      .st66 {
        fill: #002bff;
      }

      .st67 {
        fill: #7f0;
      }

      .st68 {
        fill: #b3ff00;
      }

      .st69 {
        fill: #2f00ff;
      }

      .st70 {
        fill: #00c4ff;
      }

      .st71 {
        fill: #ff0400;
      }

      .st72 {
        fill: #30f;
      }

      .st73 {
        fill: #d9ff00;
      }

      .st74 {
        fill: #ffd900;
      }

      .st75 {
        fill: #0dff00;
      }

      .st76 {
        fill: #f0f;
      }

      .st77 {
        fill: #ff9100;
      }

      .st78 {
        fill: #00ffa6;
      }

      .st79 {
        fill: #ff1a00;
      }

      .st80 {
        fill: #7b00ff;
      }

      .st81 {
        fill: url(#radial-gradient);
      }

      .st82 {
        fill: #ff00c8;
      }

      .st83 {
        fill: #80ff00;
      }

      .st84 {
        fill: #0ef;
      }

      .st85 {
        fill: #00ff2b;
      }

      .st86 {
        fill: #0cf;
      }

      .st87 {
        fill: #d000ff;
      }

      .st88 {
        fill: #00ffea;
      }

      .st89 {
        fill: #ff000d;
      }

      .st90 {
        fill: #ff0084;
      }

      .st91 {
        fill: #f7ff00;
      }

      .st92 {
        fill: #001eff;
      }

      .st93 {
        fill: #15ff00;
      }

      .st94 {
        fill: #ffa600;
      }

      .st95 {
        fill: #00ff73;
      }

      .st96 {
        fill: lime;
      }

      .st97 {
        fill: #0084ff;
      }

      .st98 {
        fill: #c800ff;
      }

      .st99 {
        fill: #e600ff;
      }

      .st100 {
        fill: #6aff00;
      }

      .st101 {
        fill: #ff2600;
      }

      .st102 {
        fill: #ffb300;
      }

      .st103 {
        fill: #3700ff;
      }

      .st104 {
        fill: #f0c;
      }

      .st105 {
        fill: #f08;
      }

      .st106 {
        fill: #e100ff;
      }

      .st107 {
        fill: #bfff00;
      }

      .st108 {
        fill: #df0;
      }

      .st109 {
        fill: #d500ff;
      }

      .st110 {
        fill: #ffd000;
      }

      .st111 {
        fill: #0072ff;
      }

      .st112 {
        fill: #00ff84;
      }

      .st113 {
        fill: #ef0;
      }

      .st114 {
        fill: #ff001e;
      }

      .st115 {
        fill: #ff8c00;
      }

      .st116 {
        fill: #00ff91;
      }

      .st117 {
        fill: #ff9d00;
      }

      .st118 {
        fill: #ff0080;
      }

      .st119 {
        fill: #00d9ff;
      }

      .st120 {
        fill: #ff00d0;
      }

      .st121 {
        fill: #d0f;
      }

      .st122 {
        fill: #006fff;
      }

      .st123 {
        fill: #0f7;
      }

      .st124 {
        fill: #d5ff00;
      }

      .st125 {
        fill: blue;
      }

      .st126 {
        fill: #f90;
      }

      .st127 {
        fill: #f0d;
      }

      .st128 {
        fill: #00ffd5;
      }

      .st129 {
        fill: #00ff95;
      }

      .st130 {
        fill: #0fe;
      }

      .st131 {
        fill: #0009ff;
      }

      .st132 {
        fill: #40ff00;
      }

      .st133 {
        fill: #2f0;
      }

      .st134 {
        fill: #0400ff;
      }

      .st135 {
        fill: #00ff62;
      }

      .st136 {
        fill: #ff6f00;
      }

      .st137 {
        fill: #05f;
      }

      .st138 {
        fill: #ff8400;
      }

      .st139 {
        fill: #6fff00;
      }

      .st140 {
        fill: #008cff;
      }

      .st141 {
        fill: #ff0051;
      }

      .st142 {
        fill: #0095ff;
      }

      .st143 {
        fill: #ff008c;
      }

      .st144 {
        fill: #004dff;
      }

      .st145 {
        fill: #6f00ff;
      }

      .st146 {
        fill: #4000ff;
      }

      .st147 {
        fill: #00ff37;
      }

      .st148 {
        fill: #fb0;
      }

      .st149 {
        fill: #2fff00;
      }

      .st150 {
        fill: #00ff6f;
      }

      .st151 {
        fill: #e6ff00;
      }

      .st152 {
        fill: #0900ff;
      }

      .st153 {
        fill: #00ff0d;
      }

      .st154 {
        fill: #1f0;
      }

      .st155 {
        fill: #6f0;
      }

      .st156 {
        fill: #00ff80;
      }

      .st157 {
        fill: #00f2ff;
      }

      .st158 {
        fill: #ff007b;
      }

      .st159 {
        fill: #ff1500;
      }

      .st160 {
        fill: #95ff00;
      }

      .st161 {
        fill: #00ff40;
      }

      .st162 {
        fill: #ff00f7;
      }

      .st163 {
        fill: #4dff00;
      }

      .st164 {
        fill: #f07;
      }

      .st165 {
        fill: #3cff00;
      }

      .st166 {
        fill: #ff0062;
      }

      .st167 {
        fill: #0f2;
      }

      .st168 {
        fill: #0059ff;
      }

      .st169 {
        fill: #ff004d;
      }

      .st170 {
        fill: #fe0;
      }

      .st171 {
        fill: #4f0;
      }

      .st172 {
        fill: #00b3ff;
      }

      .st173 {
        fill: #0f9;
      }

      .st174 {
        fill: #ffea00;
      }

      .st175 {
        fill: #90f;
      }

      .st176 {
        fill: #ff00ae;
      }

      .st177 {
        fill: #00ffbf;
      }

      .st178 {
        fill: #8400ff;
      }

      .st179 {
        fill: #ff00e1;
      }

      .st180 {
        fill: #00e6ff;
      }

      .st181 {
        fill: #09ff00;
      }

      .st182 {
        fill: #f60;
      }

      .st183 {
        fill: #fffb00;
      }

      .st184 {
        fill: #ff0;
      }

      .st185 {
        fill: #ffe600;
      }

      .st186 {
        fill: #ffb700;
      }

      .st187 {
        fill: #8c00ff;
      }

      .st188 {
        fill: #00bfff;
      }

      .st189 {
        fill: #8f0;
      }

      .st190 {
        fill: #06f;
      }

      .st191 {
        fill: #00ff9d;
      }

      .st192 {
        fill: #5100ff;
      }

      .st193 {
        fill: #f80;
      }

      .st194 {
        fill: #bf0;
      }

      .st195 {
        fill: #00ff3c;
      }

      .st196 {
        fill: #ff4800;
      }

      .st197 {
        fill: #0f1;
      }

      .st198 {
        fill: #2bff00;
      }

      .st199 {
        fill: #1aff00;
      }

      .st200 {
        fill: #ffc800;
      }

      .st201 {
        fill: #0fb;
      }

      .st202 {
        fill: #ff3700;
      }

      .st203 {
        fill: #0bf;
      }

      .st204 {
        fill: #ff002b;
      }

      .st205 {
        fill: #a600ff;
      }

      .st206 {
        fill: #a6ff00;
      }

      .st207 {
        fill: #00aeff;
      }

      .st208 {
        fill: #bf00ff;
      }

      .st209 {
        fill: #ff1e00;
      }

      .st210 {
        fill: #51ff00;
      }

      .st211 {
        fill: #00ff5e;
      }

      .st212 {
        fill: #f40;
      }

      .st213 {
        fill: #5e00ff;
      }

      .st214 {
        fill: #0091ff;
      }

      .st215 {
        fill: #ff0073;
      }

      .st216 {
        fill: #ffae00;
      }

      .st217 {
        fill: #84ff00;
      }

      .st218 {
        fill: #f0a;
      }

      .st219 {
        fill: #f03;
      }

      .st220 {
        fill: #37ff00;
      }

      .st221 {
        fill: #9eff00;
      }

      .st222 {
        fill: #eaff00;
      }

      .st223 {
        fill: #fff700;
      }

      .st224 {
        fill: #9100ff;
      }

      .st225 {
        fill: #00fff7;
      }

      .st226 {
        fill: #00ffe6;
      }

      .st227 {
        fill: #001aff;
      }

      .st228 {
        fill: #00c8ff;
      }

      .st229 {
        fill: #00ff51;
      }

      .st230 {
        fill: #ffa200;
      }

      .st231 {
        fill: #00e1ff;
      }

      .st232 {
        fill: #70f;
      }

      .st233 {
        fill: #0f5;
      }

      .st234 {
        fill: #ffd500;
      }

      .st235 {
        fill: #aeff00;
      }

      .st236 {
        fill: #ff00a2;
      }

      .st237 {
        fill: #40f;
      }

      .st238 {
        fill: #62ff00;
      }

      .st239 {
        fill: #ff00d9;
      }

      .st240 {
        fill: #009dff;
      }

      .st241 {
        fill: #ff006f;
      }

      .st242 {
        fill: #f30;
      }

      .st243 {
        fill: #00ff59;
      }

      .st244 {
        fill: #04ff00;
      }

      .st245 {
        fill: #00ffb7;
      }

      .st246 {
        fill: #00ff15;
      }

      .st247 {
        fill: #00eaff;
      }

      .st248 {
        fill: #b0f;
      }

      .st249 {
        fill: #00fffb;
      }

      .st250 {
        fill: #ff00bf;
      }

      .st251 {
        fill: #0d00ff;
      }

      .st252 {
        fill: #26ff00;
      }

      .st253 {
        fill: #2600ff;
      }

      .st254 {
        fill: #a0f;
      }

      .st255 {
        fill: #00fbff;
      }

      .st256 {
        fill: #00fff2;
      }

      .st257 {
        fill: #00d0ff;
      }

      .st258 {
        fill: red;
      }

      .st259 {
        fill: #f06;
      }

      .st260 {
        fill: #ff5100;
      }

      .st261 {
        fill: #fd0;
      }

      .st262 {
        fill: #fbff00;
      }

      .st263 {
        fill: #ff00a6;
      }

      .st264 {
        fill: #91ff00;
      }

      .st265 {
        fill: #ff4d00;
      }

      .st266 {
        fill: #00ffb3;
      }

      .st267 {
        fill: #00ff48;
      }

      .st268 {
        fill: #0004ff;
      }

      .st269 {
        fill: #f0b;
      }

      .st270 {
        fill: #6a00ff;
      }

      .st271 {
        fill: #7bff00;
      }

      .st272 {
        fill: #60f;
      }

      .st273 {
        fill: #1a00ff;
      }

      .st274 {
        fill: #3f0;
      }

      .st275 {
        fill: #0f3;
      }

      .st276 {
        fill: #ff0037;
      }

      .st277 {
        fill: #003cff;
      }

      .st278 {
        fill: #ff00d5;
      }

      .st279 {
        fill: #0f6;
      }

      .st280 {
        fill: #f09;
      }

      .st281 {
        fill: aqua;
      }

      .st282 {
        fill: #00ffae;
      }

      .st283 {
        fill: #f2ff00;
      }

      .st284 {
        fill: #ff6200;
      }

      .st285 {
        fill: #0040ff;
      }

      .st286 {
        fill: #ffbf00;
      }

      .st287 {
        fill: #c8ff00;
      }

      .st288 {
        fill: #0048ff;
      }

      .st289 {
        fill: #d0ff00;
      }

      .st290 {
        fill: #005eff;
      }

      .st291 {
        fill: #0fa;
      }

      .st292 {
        fill: #ff0026;
      }

      .st293 {
        fill: #ff0900;
      }

      .st294 {
        fill: #ff006a;
      }

      .st295 {
        fill: #73ff00;
      }

      .st296 {
        fill: #f10;
      }

      .st297 {
        fill: #ff2f00;
      }

      .st298 {
        fill: #ffc400;
      }

      .st299 {
        fill: #8cff00;
      }

      .st300 {
        fill: #48ff00;
      }

      .st301 {
        fill: #ff7b00;
      }

      .st302 {
        fill: #08f;
      }

      .st303 {
        fill: #b300ff;
      }

      .st304 {
        fill: #59ff00;
      }

      .st305 {
        fill: #00ff09;
      }

      .st306 {
        fill: #ff0004;
      }

      .st307 {
        fill: #07f;
      }

      .st308 {
        fill: #ff0d00;
      }

      .st309 {
        fill: #c400ff;
      }

      .st310 {
        fill: #006aff;
      }

      .st311 {
        fill: #00ff6a;
      }

      .st312 {
        fill: #c4ff00;
      }

      .st313 {
        fill: #0fc;
      }

      .st314 {
        fill: #10f;
      }

      .st315 {
        fill: #ff003c;
      }

      .st316 {
        fill: #ff4000;
      }

      .st317 {
        fill: #9d00ff;
      }

      .st318 {
        fill: #00a2ff;
      }

      .st319 {
        fill: #0080ff;
      }

      .st320 {
        fill: #04f;
      }

      .st321 {
        fill: #0df;
      }

      .st322 {
        fill: #ff5e00;
      }

      .st323 {
        fill: #1500ff;
      }

      .st324 {
        fill: #f20;
      }

      .st325 {
        fill: #00ffd0;
      }

      .st326 {
        fill: #00b7ff;
      }

      .st327 {
        fill: #ff6a00;
      }

      .st328 {
        fill: #0f4;
      }

      .st329 {
        fill: #00ffc4;
      }

      .st330 {
        fill: #0fd;
      }

      .st331 {
        fill: #f0e;
      }

      .st332 {
        fill: #ff0091;
      }

      .st333 {
        fill: #000dff;
      }

      .st334 {
        fill: #ff00c4;
      }

      .st335 {
        fill: #4800ff;
      }

      .st336 {
        fill: #ff7300;
      }

      .st337 {
        fill: #ff9500;
      }

      .st338 {
        fill: #0062ff;
      }

      .st339 {
        fill: #6200ff;
      }

      .st340 {
        fill: #00ffc8;
      }

      .st341 {
        fill: #a2ff00;
      }

      .st342 {
        fill: #1e00ff;
      }

      .st343 {
        fill: #0051ff;
      }

      .st344 {
        fill: #ff00f2;
      }

      .st345 {
        fill: #e0f;
      }

      .st346 {
        fill: #ff5900;
      }

      .st347 {
        fill: #b700ff;
      }

      .st348 {
        fill: #fff200;
      }

      .st349 {
        fill: #ff00ea;
      }

      .st350 {
        fill: #ff0040;
      }

      .st351 {
        fill: #b7ff00;
      }

      .st352 {
        fill: #00ff1a;
      }

      .st353 {
        fill: #cf0;
      }

      .st354 {
        fill: #4d00ff;
      }

      .st355 {
        fill: #af0;
      }

      .st356 {
        fill: #5f0;
      }

      .st357 {
        fill: #00ffd9;
      }

      .st358 {
        fill: #0f8;
      }

      .st359 {
        fill: #02f;
      }

      .st360 {
        fill: #01f;
      }

      .st361 {
        fill: #00ff8c;
      }
    </style>
    <radialGradient id="radial-gradient" cx="5" cy="-3.4" fx="5" fy="-3.4" r="4.2" gradientTransform="translate(-2.8 3.2) scale(3.8 -3.8)" gradientUnits="userSpaceOnUse">
      <stop offset="0" stop-color="#fff"/>
      <stop offset="1" stop-color="#fff" stop-opacity="0"/>
    </radialGradient>
  </defs>
  <path class="st258" d="M15.9,0c.1,0,.2,0,.3,0l-.2,16V0Z"/>
  <path class="st71" d="M16.1,0c.1,0,.2,0,.3,0l-.4,16V0Z"/>
  <path class="st293" d="M16.4,0c.1,0,.2,0,.3,0l-.7,16L16.4,0Z"/>
  <path class="st308" d="M16.7,0c.1,0,.2,0,.3,0l-1,16L16.7,0Z"/>
  <path class="st296" d="M17,0c.1,0,.2,0,.3,0l-1.3,15.9L17,0Z"/>
  <path class="st159" d="M17.3,0c.1,0,.2,0,.3,0l-1.6,15.9L17.3,0Z"/>
  <path class="st79" d="M17.5,0c.1,0,.2,0,.3,0l-1.8,15.9L17.5,0Z"/>
  <path class="st209" d="M17.8.1c.1,0,.2,0,.3,0l-2.1,15.9L17.8.1Z"/>
  <path class="st324" d="M18.1.1c.1,0,.2,0,.3,0l-2.4,15.8L18.1.1Z"/>
  <path class="st101" d="M18.4.2c.1,0,.2,0,.3,0l-2.7,15.8L18.4.2Z"/>
  <path class="st53" d="M18.6.2c.1,0,.2,0,.3,0l-2.9,15.7L18.6.2Z"/>
  <path class="st297" d="M18.9.3c.1,0,.2,0,.3,0l-3.2,15.7L18.9.3Z"/>
  <path class="st242" d="M19.2.3c.1,0,.2,0,.3,0l-3.5,15.6L19.2.3Z"/>
  <path class="st202" d="M19.5.4c0,0,.2,0,.3,0l-3.8,15.6L19.5.4Z"/>
  <path class="st35" d="M19.7.4c0,0,.2,0,.3,0l-4,15.5L19.7.4Z"/>
  <path class="st316" d="M20,.5c0,0,.2,0,.3,0l-4.3,15.4L20,.5Z"/>
  <path class="st0" d="M20.3.6c0,0,.2,0,.3,0l-4.6,15.3L20.3.6Z"/>
  <path class="st212" d="M20.3.6c0,0,.2,0,.3,0l-4.6,15.3L20.3.6Z"/>
  <path class="st196" d="M20.5.7c0,0,.2,0,.3,0l-4.8,15.3L20.5.7Z"/>
  <path class="st265" d="M20.8.7c0,0,.2,0,.3,0l-5.1,15.2L20.8.7Z"/>
  <path class="st260" d="M21.1.8c0,0,.2,0,.3.1l-5.4,15.1L21.1.8Z"/>
  <path class="st6" d="M21.3.9c0,0,.2,0,.3.1l-5.6,15L21.3.9Z"/>
  <path class="st346" d="M21.6,1c0,0,.2,0,.3.1l-5.9,14.9L21.6,1Z"/>
  <path class="st322" d="M21.9,1.1c0,0,.2,0,.3.1l-6.1,14.8L21.9,1.1Z"/>
  <path class="st284" d="M22.1,1.2c0,0,.2,0,.3.1l-6.4,14.7L22.1,1.2Z"/>
  <path class="st182" d="M22.4,1.3c0,0,.2,0,.3.1l-6.7,14.5L22.4,1.3Z"/>
  <path class="st327" d="M22.6,1.4c0,0,.2,0,.3.1l-6.9,14.4L22.6,1.4Z"/>
  <path class="st136" d="M22.9,1.6c0,0,.2,0,.3.1l-7.2,14.3L22.9,1.6Z"/>
  <path class="st336" d="M23.1,1.7c0,0,.2,0,.3.1l-7.4,14.2L23.1,1.7Z"/>
  <path class="st52" d="M23.4,1.8c0,0,.2,0,.3.1l-7.7,14L23.4,1.8Z"/>
  <path class="st301" d="M23.6,1.9c0,0,.2,0,.3.1l-7.9,13.9L23.6,1.9Z"/>
  <path class="st2" d="M23.9,2.1c0,0,.2.1.3.2l-8.1,13.8,7.9-13.9Z"/>
  <path class="st138" d="M24.1,2.2c0,0,.2.1.3.2l-8.4,13.6L24.1,2.2Z"/>
  <path class="st193" d="M24.4,2.4c0,0,.2.1.3.2l-8.6,13.5L24.4,2.4Z"/>
  <path class="st115" d="M24.6,2.5c0,0,.2.1.3.2l-8.9,13.3L24.6,2.5Z"/>
  <path class="st77" d="M24.8,2.7c0,0,.2.1.3.2l-9.1,13.2L24.8,2.7Z"/>
  <path class="st337" d="M25.1,2.8c0,0,.2.1.3.2l-9.3,13L25.1,2.8Z"/>
  <path class="st126" d="M25.3,3c0,0,.2.1.2.2l-9.5,12.8L25.3,3Z"/>
  <path class="st117" d="M25.5,3.1c0,0,.2.1.2.2l-9.8,12.7L25.5,3.1Z"/>
  <path class="st230" d="M25.7,3.3c0,0,.2.1.2.2l-10,12.5L25.7,3.3Z"/>
  <path class="st94" d="M26,3.5c0,0,.2.1.2.2l-10.2,12.3L26,3.5Z"/>
  <path class="st54" d="M26.2,3.7c0,0,.2.1.2.2l-10.4,12.1L26.2,3.7Z"/>
  <path class="st216" d="M26.4,3.8c0,0,.2.1.2.2l-10.6,12L26.4,3.8Z"/>
  <path class="st102" d="M26.6,4c0,0,.2.1.2.2l-10.8,11.8,10.6-12Z"/>
  <path class="st186" d="M26.8,4.2c0,0,.2.1.2.2l-11,11.6,10.8-11.8Z"/>
  <path class="st148" d="M27,4.4c0,0,.1.1.2.2l-11.2,11.4,11-11.6Z"/>
  <path class="st148" d="M27,4.4c0,0,.1.1.2.2l-11.2,11.4,11-11.6Z"/>
  <path class="st286" d="M27.2,4.6c0,0,.1.1.2.2l-11.4,11.2,11.2-11.4Z"/>
  <path class="st298" d="M27.4,4.8c0,0,.1.1.2.2l-11.6,11,11.4-11.2Z"/>
  <path class="st200" d="M27.6,5c0,0,.1.1.2.2l-11.8,10.8,11.6-11Z"/>
  <path class="st36" d="M27.8,5.2c0,0,.1.2.2.2l-12,10.6,11.8-10.8Z"/>
  <path class="st110" d="M28,5.4c0,0,.1.2.2.2l-12.2,10.4,12-10.6Z"/>
  <path class="st234" d="M28.2,5.6c0,0,.1.2.2.2l-12.4,10.2,12.2-10.4Z"/>
  <path class="st74" d="M28.3,5.8c0,0,.1.2.2.2l-12.5,9.9,12.3-10.2Z"/>
  <path class="st261" d="M28.5,6c0,0,.1.2.2.2l-12.7,9.7,12.5-10Z"/>
  <path class="st46" d="M28.7,6.3c0,0,.1.2.2.2l-12.9,9.5,12.7-9.7Z"/>
  <path class="st185" d="M28.9,6.5c0,0,.1.2.2.2l-13,9.3,12.9-9.5Z"/>
  <path class="st174" d="M29,6.7c0,0,.1.2.2.3l-13.2,9,13-9.3Z"/>
  <path class="st170" d="M29.2,6.9c0,0,.1.2.2.3l-13.4,8.8,13.2-9.1Z"/>
  <path class="st348" d="M29.3,7.2c0,0,.1.2.2.3l-13.5,8.6,13.3-8.8Z"/>
  <path class="st223" d="M29.5,7.4c0,0,.1.2.2.3l-13.7,8.3,13.5-8.6Z"/>
  <path class="st183" d="M29.6,7.6c0,0,.1.2.2.3l-13.8,8.1,13.6-8.4Z"/>
  <path class="st184" d="M29.8,7.9c0,0,.1.2.2.3l-13.9,7.9,13.8-8.1Z"/>
  <path class="st262" d="M29.9,8.1c0,0,0,.2.1.3l-14.1,7.6,13.9-7.9Z"/>
  <path class="st91" d="M30.1,8.4c0,0,0,.2.1.3l-14.2,7.4,14.1-7.6Z"/>
  <path class="st283" d="M30.2,8.6c0,0,0,.2.1.3l-14.3,7.1,14.2-7.4Z"/>
  <path class="st113" d="M30.3,8.9c0,0,0,.2.1.3l-14.5,6.9,14.3-7.1Z"/>
  <path class="st222" d="M30.4,9.1c0,0,0,.2.1.3l-14.6,6.6,14.4-6.9Z"/>
  <path class="st151" d="M30.6,9.4c0,0,0,.2.1.3l-14.7,6.4,14.6-6.6Z"/>
  <path class="st1" d="M30.7,9.6c0,0,0,.2.1.3l-14.8,6.1,14.7-6.4Z"/>
  <path class="st108" d="M30.8,9.9c0,0,0,.2.1.3l-14.9,5.8,14.8-6.1Z"/>
  <path class="st73" d="M30.9,10.1c0,0,0,.2.1.3l-15,5.6,14.9-5.9Z"/>
  <path class="st124" d="M31,10.4c0,0,0,.2.1.3l-15.1,5.3,15-5.6Z"/>
  <path class="st289" d="M31.1,10.7c0,0,0,.2,0,.3l-15.2,5.1,15.1-5.3Z"/>
  <path class="st353" d="M31.2,10.9c0,0,0,.2,0,.3l-15.3,4.8,15.2-5.1Z"/>
  <path class="st287" d="M31.3,11.2c0,0,0,.2,0,.3l-15.3,4.5,15.3-4.8Z"/>
  <path class="st312" d="M31.3,11.5c0,0,0,.2,0,.3l-15.4,4.2,15.3-4.5Z"/>
  <path class="st107" d="M31.4,11.7c0,0,0,.2,0,.3l-15.5,4,15.4-4.3Z"/>
  <path class="st194" d="M31.5,12c0,0,0,.2,0,.3l-15.6,3.7,15.5-4Z"/>
  <path class="st351" d="M31.6,12.3c0,0,0,.2,0,.3l-15.6,3.4,15.6-3.7Z"/>
  <path class="st68" d="M31.6,12.5c0,0,0,.2,0,.3l-15.7,3.2,15.6-3.5Z"/>
  <path class="st235" d="M31.7,12.8c0,.1,0,.2,0,.3l-15.7,2.9,15.7-3.2Z"/>
  <path class="st355" d="M31.7,13.1c0,.1,0,.2,0,.3l-15.8,2.6,15.7-2.9Z"/>
  <path class="st206" d="M31.8,13.4c0,.1,0,.2,0,.3l-15.8,2.3,15.8-2.6Z"/>
  <path class="st341" d="M31.8,13.6c0,.1,0,.2,0,.3l-15.9,2.1,15.8-2.4Z"/>
  <path class="st221" d="M31.9,13.9c0,.1,0,.2,0,.3l-15.9,1.8,15.9-2.1Z"/>
  <path class="st25" d="M31.9,14.2c0,.1,0,.2,0,.3l-15.9,1.5,15.9-1.8Z"/>
  <path class="st160" d="M31.9,14.5c0,.1,0,.2,0,.3l-16,1.2,15.9-1.5Z"/>
  <path class="st264" d="M32,14.7c0,.1,0,.2,0,.3l-16,.9,16-1.3Z"/>
  <path class="st299" d="M32,15c0,.1,0,.2,0,.3l-16,.7,16-1Z"/>
  <path class="st189" d="M32,15.3c0,.1,0,.2,0,.3l-16,.4,16-.7Z"/>
  <path class="st217" d="M32,15.6c0,.1,0,.2,0,.3h-16c0,.1,16-.3,16-.3Z"/>
  <path class="st83" d="M32,15.9c0,.1,0,.2,0,.3l-16-.2h16Z"/>
  <path class="st271" d="M32,16.1c0,.1,0,.2,0,.3l-16-.4h16Z"/>
  <path class="st67" d="M32,16.4c0,.1,0,.2,0,.3l-16-.7,16,.4Z"/>
  <path class="st295" d="M32,16.7c0,.1,0,.2,0,.3l-16-1,16,.7Z"/>
  <path class="st139" d="M32,17c0,.1,0,.2,0,.3l-15.9-1.3,16,1Z"/>
  <path class="st100" d="M32,17.3c0,.1,0,.2,0,.3l-15.9-1.6,16,1.3Z"/>
  <path class="st155" d="M31.9,17.5c0,.1,0,.2,0,.3l-15.9-1.8,15.9,1.5Z"/>
  <path class="st238" d="M31.9,17.8c0,.1,0,.2,0,.3l-15.9-2.1,15.9,1.8Z"/>
  <path class="st63" d="M31.9,18.1c0,.1,0,.2,0,.3l-15.8-2.4,15.9,2.1Z"/>
  <path class="st304" d="M31.8,18.4c0,.1,0,.2,0,.3l-15.8-2.7,15.8,2.4Z"/>
  <path class="st356" d="M31.8,18.6c0,.1,0,.2,0,.3l-15.7-2.9,15.8,2.6Z"/>
  <path class="st210" d="M31.7,18.9c0,.1,0,.2,0,.3l-15.7-3.2,15.7,2.9Z"/>
  <path class="st163" d="M31.7,19.2c0,.1,0,.2,0,.3l-15.6-3.5,15.7,3.2Z"/>
  <path class="st300" d="M31.6,19.5c0,0,0,.2,0,.3l-15.6-3.8,15.6,3.5Z"/>
  <path class="st171" d="M31.6,19.7c0,0,0,.2,0,.3l-15.5-4,15.6,3.7Z"/>
  <path class="st132" d="M31.5,20c0,0,0,.2,0,.3l-15.4-4.3,15.5,4Z"/>
  <path class="st165" d="M31.4,20.3c0,0,0,.2,0,.3l-15.3-4.6,15.4,4.3Z"/>
  <path class="st220" d="M31.3,20.5c0,0,0,.2,0,.3l-15.3-4.8,15.3,4.5Z"/>
  <path class="st274" d="M31.3,20.8c0,0,0,.2,0,.3l-15.2-5.1,15.3,4.8Z"/>
  <path class="st149" d="M31.2,21.1c0,0,0,.2-.1.3l-15.1-5.4,15.2,5.1Z"/>
  <path class="st198" d="M31.1,21.3c0,0,0,.2-.1.3l-15-5.6,15.1,5.3Z"/>
  <path class="st252" d="M31,21.6c0,0,0,.2-.1.3l-14.9-5.9,15,5.6Z"/>
  <path class="st133" d="M30.9,21.9c0,0,0,.2-.1.3l-14.8-6.1,14.9,5.9Z"/>
  <path class="st57" d="M30.8,22.1c0,0,0,.2-.1.3l-14.7-6.4,14.8,6.1Z"/>
  <path class="st199" d="M30.7,22.4c0,0,0,.2-.1.3l-14.5-6.7,14.7,6.4Z"/>
  <path class="st93" d="M30.6,22.6c0,0,0,.2-.1.3l-14.4-6.9,14.6,6.6Z"/>
  <path class="st154" d="M30.4,22.9c0,0,0,.2-.1.3l-14.3-7.2,14.4,6.9Z"/>
  <path class="st75" d="M30.3,23.1c0,0,0,.2-.1.3l-14.2-7.4,14.3,7.1Z"/>
  <path class="st181" d="M30.2,23.4c0,0,0,.2-.1.3l-14-7.7,14.2,7.4Z"/>
  <path class="st244" d="M30.1,23.6c0,0,0,.2-.1.3l-13.9-7.9,14.1,7.6Z"/>
  <path class="st96" d="M29.9,23.9c0,0-.1.2-.2.3l-13.8-8.1,13.9,7.9Z"/>
  <path class="st41" d="M29.8,24.1c0,0-.1.2-.2.3l-13.6-8.4,13.8,8.1Z"/>
  <path class="st305" d="M29.6,24.4c0,0-.1.2-.2.3l-13.5-8.6,13.6,8.4Z"/>
  <path class="st153" d="M29.5,24.6c0,0-.1.2-.2.3l-13.3-8.9,13.5,8.6Z"/>
  <path class="st197" d="M29.3,24.8c0,0-.1.2-.2.3l-13.2-9.1,13.3,8.8Z"/>
  <path class="st246" d="M29.2,25.1c0,0-.1.2-.2.3l-13-9.3,13.2,9.1Z"/>
  <path class="st352" d="M29,25.3c0,0-.1.2-.2.2l-12.8-9.5,13,9.3Z"/>
  <path class="st22" d="M28.9,25.5c0,0-.1.2-.2.2l-12.7-9.8,12.9,9.5Z"/>
  <path class="st167" d="M28.7,25.7c0,0-.1.2-.2.2l-12.5-10,12.7,9.7Z"/>
  <path class="st32" d="M28.5,26c0,0-.1.2-.2.2l-12.3-10.2,12.5,10Z"/>
  <path class="st85" d="M28.3,26.2c0,0-.1.2-.2.2l-12.1-10.4,12.3,10.2Z"/>
  <path class="st31" d="M28.2,26.4c0,0-.1.2-.2.2l-12-10.6,12.2,10.4Z"/>
  <path class="st275" d="M28,26.6c0,0-.1.2-.2.2l-11.8-10.8,12,10.6Z"/>
  <path class="st147" d="M27.8,26.8c0,0-.1.2-.2.2l-11.6-11,11.8,10.8Z"/>
  <path class="st195" d="M27.6,27c0,0-.1.1-.2.2l-11.4-11.2,11.6,11Z"/>
  <path class="st161" d="M27.4,27.2c0,0-.1.1-.2.2l-11.2-11.4,11.4,11.2Z"/>
  <path class="st328" d="M27.2,27.4c0,0-.1.1-.2.2l-11-11.6,11.2,11.4Z"/>
  <path class="st267" d="M27,27.6c0,0-.1.1-.2.2l-10.8-11.8,11,11.6Z"/>
  <path class="st51" d="M26.8,27.8c0,0-.2.1-.2.2l-10.6-12,10.8,11.8Z"/>
  <path class="st229" d="M26.6,28c0,0-.2.1-.2.2l-10.4-12.2,10.6,12Z"/>
  <path class="st233" d="M26.4,28.2c0,0-.2.1-.2.2l-10.2-12.4,10.4,12.2Z"/>
  <path class="st243" d="M26.2,28.3c0,0-.2.1-.2.2l-9.9-12.5,10.2,12.3Z"/>
  <path class="st211" d="M26,28.5c0,0-.2.1-.2.2l-9.7-12.7,10,12.5Z"/>
  <path class="st135" d="M25.7,28.7c0,0-.2.1-.2.2l-9.5-12.9,9.7,12.7Z"/>
  <path class="st279" d="M25.5,28.9c0,0-.2.1-.2.2l-9.3-13,9.5,12.9Z"/>
  <path class="st311" d="M25.3,29c0,0-.2.1-.3.2l-9-13.2,9.3,13Z"/>
  <path class="st150" d="M25.1,29.2c0,0-.2.1-.3.2l-8.8-13.4,9.1,13.2Z"/>
  <path class="st95" d="M24.8,29.3c0,0-.2.1-.3.2l-8.6-13.5,8.8,13.3Z"/>
  <path class="st123" d="M24.6,29.5c0,0-.2.1-.3.2l-8.3-13.7,8.6,13.5Z"/>
  <path class="st17" d="M24.4,29.6c0,0-.2.1-.3.2l-8.1-13.8,8.4,13.6Z"/>
  <path class="st156" d="M24.1,29.8c0,0-.2.1-.3.2l-7.9-13.9,8.1,13.8Z"/>
  <path class="st112" d="M23.9,29.9c0,0-.2,0-.3.1l-7.6-14.1,7.9,13.9Z"/>
  <path class="st358" d="M23.6,30.1c0,0-.2,0-.3.1l-7.4-14.2,7.6,14.1Z"/>
  <path class="st361" d="M23.4,30.2c0,0-.2,0-.3.1l-7.1-14.3,7.4,14.2Z"/>
  <path class="st116" d="M23.1,30.3c0,0-.2,0-.3.1l-6.9-14.5,7.1,14.3Z"/>
  <path class="st129" d="M22.9,30.4c0,0-.2,0-.3.1l-6.6-14.6,6.9,14.4Z"/>
  <path class="st173" d="M22.6,30.6c0,0-.2,0-.3.1l-6.4-14.7,6.6,14.6Z"/>
  <path class="st191" d="M22.4,30.7c0,0-.2,0-.3.1l-6.1-14.8,6.4,14.7Z"/>
  <path class="st65" d="M22.1,30.8c0,0-.2,0-.3.1l-5.8-14.9,6.1,14.8Z"/>
  <path class="st78" d="M21.9,30.9c0,0-.2,0-.3.1l-5.6-15,5.9,14.9Z"/>
  <path class="st291" d="M21.6,31c0,0-.2,0-.3.1l-5.3-15.1,5.6,15Z"/>
  <path class="st282" d="M21.3,31.1c0,0-.2,0-.3,0l-5.1-15.2,5.3,15.1Z"/>
  <path class="st266" d="M21.1,31.2c0,0-.2,0-.3,0l-4.8-15.3,5.1,15.2Z"/>
  <path class="st245" d="M20.8,31.3c0,0-.2,0-.3,0l-4.5-15.3,4.8,15.3Z"/>
  <path class="st201" d="M20.5,31.3c0,0-.2,0-.3,0l-4.2-15.4,4.5,15.3Z"/>
  <path class="st177" d="M20.3,31.4c0,0-.2,0-.3,0l-4-15.5,4.3,15.4Z"/>
  <path class="st329" d="M20,31.5c0,0-.2,0-.3,0l-3.7-15.6,4,15.5Z"/>
  <path class="st340" d="M19.7,31.6c0,0-.2,0-.3,0l-3.4-15.6,3.7,15.6Z"/>
  <path class="st313" d="M19.5,31.6c0,0-.2,0-.3,0l-3.2-15.7,3.5,15.6Z"/>
  <path class="st325" d="M19.2,31.7c-.1,0-.2,0-.3,0l-2.9-15.7,3.2,15.7Z"/>
  <path class="st128" d="M18.9,31.7c-.1,0-.2,0-.3,0l-2.6-15.8,2.9,15.7Z"/>
  <path class="st357" d="M18.6,31.8c-.1,0-.2,0-.3,0l-2.3-15.8,2.6,15.8Z"/>
  <path class="st330" d="M18.4,31.8c-.1,0-.2,0-.3,0l-2.1-15.9,2.4,15.8Z"/>
  <path class="st55" d="M18.1,31.9c-.1,0-.2,0-.3,0l-1.8-15.9,2.1,15.9Z"/>
  <path class="st226" d="M17.8,31.9c-.1,0-.2,0-.3,0l-1.5-15.9,1.8,15.9Z"/>
  <path class="st88" d="M17.5,31.9c-.1,0-.2,0-.3,0l-1.2-16,1.5,15.9Z"/>
  <path class="st130" d="M17.3,32c-.1,0-.2,0-.3,0l-.9-16,1.3,16Z"/>
  <path class="st256" d="M17,32c-.1,0-.2,0-.3,0l-.7-16,1,16Z"/>
  <path class="st225" d="M16.7,32c-.1,0-.2,0-.3,0l-.4-16,.7,16Z"/>
  <path class="st249" d="M16.4,32c-.1,0-.2,0-.3,0v-16c-.1,0,.3,16,.3,16Z"/>
  <path class="st281" d="M16.1,32c-.1,0-.2,0-.3,0l.2-16v16Z"/>
  <path class="st255" d="M15.9,32c-.1,0-.2,0-.3,0l.4-16v16Z"/>
  <path class="st23" d="M15.6,32c-.1,0-.2,0-.3,0l.7-16-.4,16Z"/>
  <path class="st157" d="M15.3,32c-.1,0-.2,0-.3,0l1-16-.7,16Z"/>
  <path class="st84" d="M15,32c-.1,0-.2,0-.3,0l1.3-15.9-1,16Z"/>
  <path class="st247" d="M14.7,32c-.1,0-.2,0-.3,0l1.6-15.9-1.3,16Z"/>
  <path class="st180" d="M14.5,31.9c-.1,0-.2,0-.3,0l1.8-15.9-1.5,15.9Z"/>
  <path class="st231" d="M14.2,31.9c-.1,0-.2,0-.3,0l2.1-15.9-1.8,15.9Z"/>
  <path class="st321" d="M13.9,31.9c-.1,0-.2,0-.3,0l2.4-15.8-2.1,15.9Z"/>
  <path class="st119" d="M13.6,31.8c-.1,0-.2,0-.3,0l2.7-15.8-2.4,15.8Z"/>
  <path class="st28" d="M13.4,31.8c-.1,0-.2,0-.3,0l2.9-15.7-2.6,15.8Z"/>
  <path class="st257" d="M13.1,31.7c-.1,0-.2,0-.3,0l3.2-15.7-2.9,15.7Z"/>
  <path class="st86" d="M12.8,31.7c-.1,0-.2,0-.3,0l3.5-15.6-3.2,15.7Z"/>
  <path class="st228" d="M12.5,31.6c0,0-.2,0-.3,0l3.8-15.6-3.5,15.6Z"/>
  <path class="st70" d="M12.3,31.6c0,0-.2,0-.3,0l4-15.5-3.7,15.6Z"/>
  <path class="st188" d="M12,31.5c0,0-.2,0-.3,0l4.3-15.4-4,15.5Z"/>
  <path class="st203" d="M11.7,31.4c0,0-.2,0-.3,0l4.6-15.3-4.3,15.4Z"/>
  <path class="st326" d="M11.5,31.3c0,0-.2,0-.3,0l4.8-15.3-4.5,15.3Z"/>
  <path class="st172" d="M11.2,31.3c0,0-.2,0-.3,0l5.1-15.2-4.8,15.3Z"/>
  <path class="st207" d="M10.9,31.2c0,0-.2,0-.3-.1l5.4-15.1-5.1,15.2Z"/>
  <path class="st58" d="M10.7,31.1c0,0-.2,0-.3-.1l5.6-15-5.3,15.1Z"/>
  <path class="st40" d="M10.4,31c0,0-.2,0-.3-.1l5.9-14.9-5.6,15Z"/>
  <path class="st318" d="M10.1,30.9c0,0-.2,0-.3-.1l6.1-14.8-5.9,14.9Z"/>
  <path class="st240" d="M9.9,30.8c0,0-.2,0-.3-.1l6.4-14.7-6.1,14.8Z"/>
  <path class="st56" d="M9.6,30.7c0,0-.2,0-.3-.1l6.7-14.5-6.4,14.7Z"/>
  <path class="st142" d="M9.4,30.6c0,0-.2,0-.3-.1l6.9-14.4-6.6,14.6Z"/>
  <path class="st214" d="M9.1,30.4c0,0-.2,0-.3-.1l7.2-14.3-6.9,14.4Z"/>
  <path class="st140" d="M8.9,30.3c0,0-.2,0-.3-.1l7.4-14.2-7.1,14.3Z"/>
  <path class="st302" d="M8.6,30.2c0,0-.2,0-.3-.1l7.7-14-7.4,14.2Z"/>
  <path class="st97" d="M8.4,30.1c0,0-.2,0-.3-.1l7.9-13.9-7.6,14.1Z"/>
  <path class="st319" d="M8.1,29.9c0,0-.2-.1-.3-.2l8.1-13.8-7.9,13.9Z"/>
  <path class="st47" d="M7.9,29.8c0,0-.2-.1-.3-.2l8.4-13.6-8.1,13.8Z"/>
  <path class="st307" d="M7.6,29.6c0,0-.2-.1-.3-.2l8.6-13.5-8.4,13.6Z"/>
  <path class="st111" d="M7.4,29.5c0,0-.2-.1-.3-.2l8.9-13.3-8.6,13.5Z"/>
  <path class="st122" d="M7.2,29.3c0,0-.2-.1-.3-.2l9.1-13.2-8.8,13.3Z"/>
  <path class="st310" d="M6.9,29.2c0,0-.2-.1-.3-.2l9.3-13-9.1,13.2Z"/>
  <path class="st190" d="M6.7,29c0,0-.2-.1-.2-.2l9.5-12.8-9.3,13Z"/>
  <path class="st338" d="M6.5,28.9c0,0-.2-.1-.2-.2l9.8-12.7-9.5,12.9Z"/>
  <path class="st290" d="M6.3,28.7c0,0-.2-.1-.2-.2l10-12.5-9.7,12.7Z"/>
  <path class="st168" d="M6,28.5c0,0-.2-.1-.2-.2l10.2-12.3-10,12.5Z"/>
  <path class="st137" d="M5.8,28.3c0,0-.2-.1-.2-.2l10.4-12.1-10.2,12.3Z"/>
  <path class="st343" d="M5.6,28.2c0,0-.2-.1-.2-.2l10.6-12-10.4,12.2Z"/>
  <path class="st144" d="M5.4,28c0,0-.2-.1-.2-.2l10.8-11.8-10.6,12Z"/>
  <path class="st288" d="M5.2,27.8c0,0-.2-.1-.2-.2l11-11.6-10.8,11.8Z"/>
  <path class="st320" d="M5,27.6c0,0-.1-.1-.2-.2l11.2-11.4-11,11.6Z"/>
  <path class="st285" d="M4.8,27.4c0,0-.1-.1-.2-.2l11.4-11.2-11.2,11.4Z"/>
  <path class="st277" d="M4.6,27.2c0,0-.1-.1-.2-.2l11.6-11-11.4,11.2Z"/>
  <path class="st16" d="M4.4,27c0,0-.1-.1-.2-.2l11.8-10.8-11.6,11Z"/>
  <path class="st45" d="M4.2,26.8c0,0-.1-.2-.2-.2l12-10.6-11.8,10.8Z"/>
  <path class="st38" d="M4,26.6c0,0-.1-.2-.2-.2l12.2-10.4-12,10.6Z"/>
  <path class="st66" d="M3.8,26.4c0,0-.1-.2-.2-.2l12.4-10.2L3.8,26.4Z"/>
  <path class="st9" d="M3.7,26.2c0,0-.1-.2-.2-.2l12.5-9.9L3.7,26.2Z"/>
  <path class="st359" d="M3.5,26c0,0-.1-.2-.2-.2l12.7-9.7L3.5,26Z"/>
  <path class="st92" d="M3.3,25.7c0,0-.1-.2-.2-.2l12.9-9.5L3.3,25.7Z"/>
  <path class="st227" d="M3.1,25.5c0,0-.1-.2-.2-.2l13-9.3L3.1,25.5Z"/>
  <path class="st12" d="M3,25.3c0,0-.1-.2-.2-.3l13.2-9L3,25.3Z"/>
  <path class="st360" d="M2.8,25.1c0,0-.1-.2-.2-.3l13.4-8.8L2.8,25.1Z"/>
  <path class="st333" d="M2.7,24.8c0,0-.1-.2-.2-.3l13.5-8.6L2.7,24.8Z"/>
  <path class="st131" d="M2.5,24.6c0,0-.1-.2-.2-.3l13.7-8.3L2.5,24.6Z"/>
  <path class="st268" d="M2.4,24.4c0,0-.1-.2-.2-.3l13.8-8.1L2.4,24.4Z"/>
  <path class="st125" d="M2.2,24.1c0,0-.1-.2-.2-.3l13.9-7.9L2.2,24.1Z"/>
  <path class="st134" d="M2.1,23.9c0,0,0-.2-.1-.3l14.1-7.6-13.9,7.9Z"/>
  <path class="st152" d="M1.9,23.6c0,0,0-.2-.1-.3l14.2-7.4L1.9,23.6Z"/>
  <path class="st251" d="M1.8,23.4c0,0,0-.2-.1-.3l14.3-7.1L1.8,23.4Z"/>
  <path class="st314" d="M1.7,23.1c0,0,0-.2-.1-.3l14.5-6.9L1.7,23.1Z"/>
  <path class="st323" d="M1.6,22.9c0,0,0-.2-.1-.3l14.6-6.6L1.6,22.9Z"/>
  <path class="st273" d="M1.4,22.6c0,0,0-.2-.1-.3l14.7-6.4L1.4,22.6Z"/>
  <path class="st342" d="M1.3,22.4c0,0,0-.2-.1-.3l14.8-6.1L1.3,22.4Z"/>
  <path class="st34" d="M1.2,22.1c0,0,0-.2-.1-.3l14.9-5.8L1.2,22.1Z"/>
  <path class="st253" d="M1.1,21.9c0,0,0-.2-.1-.3l15-5.6L1.1,21.9Z"/>
  <path class="st64" d="M1,21.6c0,0,0-.2-.1-.3l15.1-5.3L1,21.6Z"/>
  <path class="st69" d="M.9,21.3c0,0,0-.2,0-.3l15.2-5.1L.9,21.3Z"/>
  <path class="st72" d="M.8,21.1c0,0,0-.2,0-.3l15.3-4.8L.8,21.1Z"/>
  <path class="st103" d="M.7,20.8c0,0,0-.2,0-.3l15.3-4.5L.7,20.8Z"/>
  <path class="st5" d="M.7,20.5c0,0,0-.2,0-.3l15.4-4.2L.7,20.5Z"/>
  <path class="st146" d="M.6,20.3c0,0,0-.2,0-.3l15.5-4L.6,20.3Z"/>
  <path class="st237" d="M.5,20c0,0,0-.2,0-.3l15.6-3.7L.5,20Z"/>
  <path class="st335" d="M.4,19.7c0,0,0-.2,0-.3l15.6-3.4L.4,19.7Z"/>
  <path class="st354" d="M.4,19.5c0,0,0-.2,0-.3l15.7-3.2L.4,19.5Z"/>
  <path class="st192" d="M.3,19.2c0-.1,0-.2,0-.3l15.7-2.9L.3,19.2Z"/>
  <path class="st48" d="M.3,18.9c0-.1,0-.2,0-.3l15.8-2.6L.3,18.9Z"/>
  <path class="st44" d="M.2,18.6c0-.1,0-.2,0-.3l15.8-2.3L.2,18.6Z"/>
  <path class="st213" d="M.2,18.4c0-.1,0-.2,0-.3l15.9-2.1L.2,18.4Z"/>
  <path class="st339" d="M.1,18.1c0-.1,0-.2,0-.3l15.9-1.8L.1,18.1Z"/>
  <path class="st272" d="M.1,17.8c0-.1,0-.2,0-.3l15.9-1.5L.1,17.8Z"/>
  <path class="st270" d="M0,17.5c0-.1,0-.2,0-.3l16-1.2L0,17.5Z"/>
  <path class="st145" d="M0,17.3c0-.1,0-.2,0-.3l16-.9L0,17.3Z"/>
  <path class="st26" d="M0,17c0-.1,0-.2,0-.3l16-.7L0,17Z"/>
  <path class="st232" d="M0,16.7c0-.1,0-.2,0-.3l16-.4L0,16.7Z"/>
  <path class="st80" d="M0,16.4c0-.1,0-.2,0-.3h16c0-.1-16,.3-16,.3Z"/>
  <path class="st20" d="M0,16.1c0-.1,0-.2,0-.3l16,.2H0Z"/>
  <path class="st178" d="M0,15.9c0-.1,0-.2,0-.3l16,.4H0Z"/>
  <path class="st13" d="M0,15.6c0-.1,0-.2,0-.3l16,.7L0,15.6Z"/>
  <path class="st187" d="M0,15.3c0-.1,0-.2,0-.3l16,1L0,15.3Z"/>
  <path class="st224" d="M0,15c0-.1,0-.2,0-.3l15.9,1.3L0,15Z"/>
  <path class="st18" d="M0,14.7c0-.1,0-.2,0-.3l15.9,1.6L0,14.7Z"/>
  <path class="st175" d="M0,14.5c0-.1,0-.2,0-.3l15.9,1.8L0,14.5Z"/>
  <path class="st317" d="M.1,14.2c0-.1,0-.2,0-.3l15.9,2.1L.1,14.2Z"/>
  <path class="st7" d="M.1,13.9c0-.1,0-.2,0-.3l15.8,2.4L.1,13.9Z"/>
  <path class="st205" d="M.2,13.6c0-.1,0-.2,0-.3l15.8,2.7L.2,13.6Z"/>
  <path class="st254" d="M.2,13.4c0-.1,0-.2,0-.3l15.7,2.9L.2,13.4Z"/>
  <path class="st49" d="M.3,13.1c0-.1,0-.2,0-.3l15.7,3.2L.3,13.1Z"/>
  <path class="st303" d="M.3,12.8c0-.1,0-.2,0-.3l15.6,3.5L.3,12.8Z"/>
  <path class="st347" d="M.4,12.5c0,0,0-.2,0-.3l15.6,3.8L.4,12.5Z"/>
  <path class="st248" d="M.4,12.3c0,0,0-.2,0-.3l15.5,4L.4,12.3Z"/>
  <path class="st208" d="M.5,12c0,0,0-.2,0-.3l15.4,4.3L.5,12Z"/>
  <path class="st309" d="M.6,11.7c0,0,0-.2,0-.3l15.3,4.6L.6,11.7Z"/>
  <path class="st98" d="M.7,11.5c0,0,0-.2,0-.3l15.3,4.8L.7,11.5Z"/>
  <path class="st4" d="M.7,11.2c0,0,0-.2,0-.3l15.2,5.1L.7,11.2Z"/>
  <path class="st87" d="M.8,10.9c0,0,0-.2.1-.3l15.1,5.4L.8,10.9Z"/>
  <path class="st109" d="M.9,10.7c0,0,0-.2.1-.3l15,5.6L.9,10.7Z"/>
  <path class="st21" d="M1,10.4c0,0,0-.2.1-.3l14.9,5.9L1,10.4Z"/>
  <path class="st121" d="M1.1,10.1c0,0,0-.2.1-.3l14.8,6.1L1.1,10.1Z"/>
  <path class="st106" d="M1.2,9.9c0,0,0-.2.1-.3l14.7,6.4L1.2,9.9Z"/>
  <path class="st99" d="M1.3,9.6c0,0,0-.2.1-.3l14.5,6.7L1.3,9.6Z"/>
  <path class="st15" d="M1.4,9.4c0,0,0-.2.1-.3l14.4,6.9L1.4,9.4Z"/>
  <path class="st345" d="M1.6,9.1c0,0,0-.2.1-.3l14.3,7.2L1.6,9.1Z"/>
  <path class="st10" d="M1.7,8.9c0,0,0-.2.1-.3l14.2,7.4L1.7,8.9Z"/>
  <path class="st60" d="M1.8,8.6c0,0,0-.2.1-.3l14,7.7L1.8,8.6Z"/>
  <path class="st27" d="M1.9,8.4c0,0,0-.2.1-.3l13.9,7.9L1.9,8.4Z"/>
  <path class="st76" d="M2.1,8.1c0,0,.1-.2.2-.3l13.8,8.1L2.1,8.1Z"/>
  <path class="st19" d="M2.2,7.9c0,0,.1-.2.2-.3l13.6,8.4L2.2,7.9Z"/>
  <path class="st162" d="M2.4,7.6c0,0,.1-.2.2-.3l13.5,8.6L2.4,7.6Z"/>
  <path class="st344" d="M2.5,7.4c0,0,.1-.2.2-.3l13.3,8.9L2.5,7.4Z"/>
  <path class="st331" d="M2.7,7.2c0,0,.1-.2.2-.3l13.2,9.1L2.7,7.2Z"/>
  <path class="st349" d="M2.8,6.9c0,0,.1-.2.2-.3l13,9.3L2.8,6.9Z"/>
  <path class="st24" d="M3,6.7c0,0,.1-.2.2-.2l12.8,9.5L3,6.7Z"/>
  <path class="st179" d="M3.1,6.5c0,0,.1-.2.2-.2l12.7,9.8L3.1,6.5Z"/>
  <path class="st127" d="M3.3,6.3c0,0,.1-.2.2-.2l12.5,10L3.3,6.3Z"/>
  <path class="st239" d="M3.5,6c0,0,.1-.2.2-.2l12.3,10.2L3.5,6Z"/>
  <path class="st278" d="M3.7,5.8c0,0,.1-.2.2-.2l12.1,10.4L3.7,5.8Z"/>
  <path class="st120" d="M3.8,5.6c0,0,.1-.2.2-.2l12,10.6L3.8,5.6Z"/>
  <path class="st104" d="M4,5.4c0,0,.1-.2.2-.2l11.8,10.8L4,5.4Z"/>
  <path class="st82" d="M4.2,5.2c0,0,.1-.2.2-.2l11.6,11L4.2,5.2Z"/>
  <path class="st334" d="M4.4,5c0,0,.1-.1.2-.2l11.4,11.2L4.4,5Z"/>
  <path class="st250" d="M4.6,4.8c0,0,.1-.1.2-.2l11.2,11.4L4.6,4.8Z"/>
  <path class="st269" d="M4.8,4.6c0,0,.1-.1.2-.2l11,11.6L4.8,4.6Z"/>
  <path class="st33" d="M5,4.4c0,0,.1-.1.2-.2l10.8,11.8L5,4.4Z"/>
  <path class="st29" d="M5.2,4.2c0,0,.2-.1.2-.2l10.6,12L5.2,4.2Z"/>
  <path class="st176" d="M5.4,4c0,0,.2-.1.2-.2l10.4,12.2L5.4,4Z"/>
  <path class="st218" d="M5.6,3.8c0,0,.2-.1.2-.2l10.2,12.4L5.6,3.8Z"/>
  <path class="st263" d="M5.8,3.7c0,0,.2-.1.2-.2l9.9,12.5L5.8,3.7Z"/>
  <path class="st236" d="M6,3.5c0,0,.2-.1.2-.2l9.7,12.7L6,3.5Z"/>
  <path class="st62" d="M6.3,3.3c0,0,.2-.1.2-.2l9.5,12.9L6.3,3.3Z"/>
  <path class="st280" d="M6.5,3.1c0,0,.2-.1.2-.2l9.3,13L6.5,3.1Z"/>
  <path class="st50" d="M6.7,3c0,0,.2-.1.3-.2l9,13.2L6.7,3Z"/>
  <path class="st332" d="M6.9,2.8c0,0,.2-.1.3-.2l8.8,13.4L6.9,2.8Z"/>
  <path class="st143" d="M7.2,2.7c0,0,.2-.1.3-.2l8.6,13.5L7.2,2.7Z"/>
  <path class="st105" d="M7.4,2.5c0,0,.2-.1.3-.2l8.3,13.7L7.4,2.5Z"/>
  <path class="st90" d="M7.6,2.4c0,0,.2-.1.3-.2l8.1,13.8L7.6,2.4Z"/>
  <path class="st118" d="M7.9,2.2c0,0,.2-.1.3-.2l7.9,13.9L7.9,2.2Z"/>
  <path class="st158" d="M8.1,2.1c0,0,.2,0,.3-.1l7.6,14.1L8.1,2.1Z"/>
  <path class="st164" d="M8.4,1.9c0,0,.2,0,.3-.1l7.4,14.2L8.4,1.9Z"/>
  <path class="st215" d="M8.6,1.8c0,0,.2,0,.3-.1l7.1,14.3L8.6,1.8Z"/>
  <path class="st241" d="M8.9,1.7c0,0,.2,0,.3-.1l6.9,14.5L8.9,1.7Z"/>
  <path class="st294" d="M9.1,1.6c0,0,.2,0,.3-.1l6.6,14.6L9.1,1.6Z"/>
  <path class="st259" d="M9.4,1.4c0,0,.2,0,.3-.1l6.4,14.7L9.4,1.4Z"/>
  <path class="st166" d="M9.6,1.3c0,0,.2,0,.3-.1l6.1,14.8L9.6,1.3Z"/>
  <path class="st43" d="M9.9,1.2c0,0,.2,0,.3-.1l5.8,14.9L9.9,1.2Z"/>
  <path class="st61" d="M10.1,1.1c0,0,.2,0,.3-.1l5.6,15L10.1,1.1Z"/>
  <path class="st8" d="M10.4,1c0,0,.2,0,.3-.1l5.3,15.1L10.4,1Z"/>
  <path class="st141" d="M10.7.9c0,0,.2,0,.3,0l5.1,15.2L10.7.9Z"/>
  <path class="st169" d="M10.9.8c0,0,.2,0,.3,0l4.8,15.3L10.9.8Z"/>
  <path class="st3" d="M11.2.7c0,0,.2,0,.3,0l4.5,15.3L11.2.7Z"/>
  <path class="st37" d="M11.5.7c0,0,.2,0,.3,0l4.2,15.4L11.5.7Z"/>
  <path class="st350" d="M11.7.6c0,0,.2,0,.3,0l4,15.5L11.7.6Z"/>
  <path class="st315" d="M12,.5c0,0,.2,0,.3,0l3.7,15.6L12,.5Z"/>
  <path class="st276" d="M12.3.4c0,0,.2,0,.3,0l3.4,15.6L12.3.4Z"/>
  <path class="st219" d="M12.5.4c0,0,.2,0,.3,0l3.2,15.7L12.5.4Z"/>
  <path class="st14" d="M12.8.3c.1,0,.2,0,.3,0l2.9,15.7L12.8.3Z"/>
  <path class="st204" d="M13.1.3c.1,0,.2,0,.3,0l2.6,15.8L13.1.3Z"/>
  <path class="st292" d="M13.4.2c.1,0,.2,0,.3,0l2.3,15.8L13.4.2Z"/>
  <path class="st59" d="M13.6.2c.1,0,.2,0,.3,0l2.1,15.9L13.6.2Z"/>
  <path class="st114" d="M13.9.1c.1,0,.2,0,.3,0l1.8,15.9L13.9.1Z"/>
  <path class="st30" d="M14.2.1c.1,0,.2,0,.3,0l1.5,15.9L14.2.1Z"/>
  <path class="st42" d="M14.5,0c.1,0,.2,0,.3,0l1.2,16L14.5,0Z"/>
  <path class="st11" d="M14.7,0c.1,0,.2,0,.3,0l.9,16L14.7,0Z"/>
  <path class="st89" d="M15,0c.1,0,.2,0,.3,0l.7,16L15,0Z"/>
  <path class="st39" d="M15.3,0c.1,0,.2,0,.3,0l.4,16L15.3,0Z"/>
  <path class="st306" d="M15.6,0c.1,0,.2,0,.3,0v16C16,16,15.6,0,15.6,0Z"/>
  <circle class="st81" cx="16" cy="16" r="16"/>
</svg>